<mxfile host="app.diagrams.net" modified="2023-08-27T00:58:48.791Z" agent="Mozilla/5.0 (Macintosh; Intel Mac OS X 10_15_7) AppleWebKit/537.36 (KHTML, like Gecko) Chrome/116.0.0.0 Safari/537.36" etag="McQIa4b1F12c1Nxac0Wy" version="21.6.9" type="github">
  <diagram name="第 1 页" id="FpagdW_Q9j-P5M2OHQ3g">
    <mxGraphModel dx="2403" dy="1362" grid="1" gridSize="10" guides="1" tooltips="1" connect="1" arrows="0" fold="1" page="1" pageScale="1" pageWidth="827" pageHeight="805" math="0" shadow="0">
      <root>
        <mxCell id="0" />
        <mxCell id="1" parent="0" />
        <mxCell id="QXv2AWhjhRIxDeLdODB5-349" style="edgeStyle=none;rounded=0;orthogonalLoop=1;jettySize=auto;html=1;exitX=0.5;exitY=0;exitDx=0;exitDy=0;entryX=0.5;entryY=1;entryDx=0;entryDy=0;" parent="1" source="QXv2AWhjhRIxDeLdODB5-1" target="QXv2AWhjhRIxDeLdODB5-12" edge="1">
          <mxGeometry relative="1" as="geometry" />
        </mxCell>
        <mxCell id="QXv2AWhjhRIxDeLdODB5-1" value="" style="rounded=1;whiteSpace=wrap;html=1;fillColor=#dae8fc;strokeColor=#6c8ebf;" parent="1" vertex="1">
          <mxGeometry x="40" y="70" width="40" height="20" as="geometry" />
        </mxCell>
        <mxCell id="QXv2AWhjhRIxDeLdODB5-351" style="edgeStyle=none;rounded=0;orthogonalLoop=1;jettySize=auto;html=1;exitX=0.5;exitY=0;exitDx=0;exitDy=0;entryX=0.5;entryY=1;entryDx=0;entryDy=0;" parent="1" source="QXv2AWhjhRIxDeLdODB5-2" target="QXv2AWhjhRIxDeLdODB5-13" edge="1">
          <mxGeometry relative="1" as="geometry" />
        </mxCell>
        <mxCell id="QXv2AWhjhRIxDeLdODB5-2" value="" style="rounded=1;whiteSpace=wrap;html=1;fillColor=#dae8fc;strokeColor=#6c8ebf;" parent="1" vertex="1">
          <mxGeometry x="120" y="70" width="40" height="20" as="geometry" />
        </mxCell>
        <mxCell id="QXv2AWhjhRIxDeLdODB5-352" style="edgeStyle=none;rounded=0;orthogonalLoop=1;jettySize=auto;html=1;exitX=0.5;exitY=0;exitDx=0;exitDy=0;entryX=0.5;entryY=1;entryDx=0;entryDy=0;" parent="1" source="QXv2AWhjhRIxDeLdODB5-3" target="QXv2AWhjhRIxDeLdODB5-14" edge="1">
          <mxGeometry relative="1" as="geometry" />
        </mxCell>
        <mxCell id="QXv2AWhjhRIxDeLdODB5-3" value="" style="rounded=1;whiteSpace=wrap;html=1;fillColor=#dae8fc;strokeColor=#6c8ebf;" parent="1" vertex="1">
          <mxGeometry x="200" y="70" width="40" height="20" as="geometry" />
        </mxCell>
        <mxCell id="QXv2AWhjhRIxDeLdODB5-355" style="edgeStyle=none;rounded=0;orthogonalLoop=1;jettySize=auto;html=1;exitX=0.5;exitY=0;exitDx=0;exitDy=0;entryX=0.5;entryY=1;entryDx=0;entryDy=0;" parent="1" source="QXv2AWhjhRIxDeLdODB5-5" target="QXv2AWhjhRIxDeLdODB5-16" edge="1">
          <mxGeometry relative="1" as="geometry" />
        </mxCell>
        <mxCell id="QXv2AWhjhRIxDeLdODB5-5" value="" style="rounded=1;whiteSpace=wrap;html=1;fillColor=#dae8fc;strokeColor=#6c8ebf;" parent="1" vertex="1">
          <mxGeometry x="300" y="70" width="40" height="20" as="geometry" />
        </mxCell>
        <mxCell id="QXv2AWhjhRIxDeLdODB5-348" style="edgeStyle=none;rounded=0;orthogonalLoop=1;jettySize=auto;html=1;exitX=0.5;exitY=0;exitDx=0;exitDy=0;entryX=0.5;entryY=1;entryDx=0;entryDy=0;" parent="1" source="QXv2AWhjhRIxDeLdODB5-7" target="QXv2AWhjhRIxDeLdODB5-332" edge="1">
          <mxGeometry relative="1" as="geometry" />
        </mxCell>
        <mxCell id="QXv2AWhjhRIxDeLdODB5-7" value="&lt;font face=&quot;Times New Roman&quot;&gt;SOS&lt;/font&gt;" style="ellipse;whiteSpace=wrap;html=1;aspect=fixed;fillColor=#e1d5e7;strokeColor=#9673a6;" parent="1" vertex="1">
          <mxGeometry x="40" y="160" width="40" height="40" as="geometry" />
        </mxCell>
        <mxCell id="QXv2AWhjhRIxDeLdODB5-350" style="edgeStyle=none;rounded=0;orthogonalLoop=1;jettySize=auto;html=1;exitX=0.5;exitY=0;exitDx=0;exitDy=0;entryX=0.5;entryY=1;entryDx=0;entryDy=0;" parent="1" source="QXv2AWhjhRIxDeLdODB5-8" target="QXv2AWhjhRIxDeLdODB5-333" edge="1">
          <mxGeometry relative="1" as="geometry" />
        </mxCell>
        <mxCell id="QXv2AWhjhRIxDeLdODB5-8" value="&lt;font face=&quot;Times New Roman&quot;&gt;Tok0&lt;/font&gt;" style="ellipse;whiteSpace=wrap;html=1;aspect=fixed;fillColor=#e1d5e7;strokeColor=#9673a6;" parent="1" vertex="1">
          <mxGeometry x="120" y="160" width="40" height="40" as="geometry" />
        </mxCell>
        <mxCell id="QXv2AWhjhRIxDeLdODB5-353" style="edgeStyle=none;rounded=0;orthogonalLoop=1;jettySize=auto;html=1;exitX=0.5;exitY=0;exitDx=0;exitDy=0;entryX=0.5;entryY=1;entryDx=0;entryDy=0;" parent="1" source="QXv2AWhjhRIxDeLdODB5-9" target="QXv2AWhjhRIxDeLdODB5-334" edge="1">
          <mxGeometry relative="1" as="geometry" />
        </mxCell>
        <mxCell id="QXv2AWhjhRIxDeLdODB5-9" value="&lt;font face=&quot;Times New Roman&quot;&gt;Tok1&lt;/font&gt;" style="ellipse;whiteSpace=wrap;html=1;aspect=fixed;fillColor=#e1d5e7;strokeColor=#9673a6;" parent="1" vertex="1">
          <mxGeometry x="200" y="160" width="40" height="40" as="geometry" />
        </mxCell>
        <mxCell id="QXv2AWhjhRIxDeLdODB5-354" style="edgeStyle=none;rounded=0;orthogonalLoop=1;jettySize=auto;html=1;exitX=0.5;exitY=0;exitDx=0;exitDy=0;entryX=0.5;entryY=1;entryDx=0;entryDy=0;" parent="1" source="QXv2AWhjhRIxDeLdODB5-11" target="QXv2AWhjhRIxDeLdODB5-335" edge="1">
          <mxGeometry relative="1" as="geometry" />
        </mxCell>
        <mxCell id="QXv2AWhjhRIxDeLdODB5-11" value="&lt;font face=&quot;Times New Roman&quot;&gt;Tokn&lt;/font&gt;" style="ellipse;whiteSpace=wrap;html=1;aspect=fixed;fillColor=#e1d5e7;strokeColor=#9673a6;" parent="1" vertex="1">
          <mxGeometry x="300" y="160" width="40" height="40" as="geometry" />
        </mxCell>
        <mxCell id="QXv2AWhjhRIxDeLdODB5-12" value="&lt;font face=&quot;Times New Roman&quot;&gt;Tok0&lt;/font&gt;" style="ellipse;whiteSpace=wrap;html=1;aspect=fixed;fillColor=#f8cecc;strokeColor=#b85450;" parent="1" vertex="1">
          <mxGeometry x="40" width="40" height="40" as="geometry" />
        </mxCell>
        <mxCell id="QXv2AWhjhRIxDeLdODB5-13" value="&lt;font face=&quot;Times New Roman&quot;&gt;Tok1&lt;/font&gt;" style="ellipse;whiteSpace=wrap;html=1;aspect=fixed;fillColor=#f8cecc;strokeColor=#b85450;" parent="1" vertex="1">
          <mxGeometry x="120" width="40" height="40" as="geometry" />
        </mxCell>
        <mxCell id="QXv2AWhjhRIxDeLdODB5-14" value="&lt;font face=&quot;Times New Roman&quot;&gt;Tok2&lt;/font&gt;" style="ellipse;whiteSpace=wrap;html=1;aspect=fixed;fillColor=#f8cecc;strokeColor=#b85450;" parent="1" vertex="1">
          <mxGeometry x="200" width="40" height="40" as="geometry" />
        </mxCell>
        <mxCell id="QXv2AWhjhRIxDeLdODB5-16" value="&lt;font face=&quot;Times New Roman&quot;&gt;EOS&lt;/font&gt;" style="ellipse;whiteSpace=wrap;html=1;aspect=fixed;fillColor=#f8cecc;strokeColor=#b85450;" parent="1" vertex="1">
          <mxGeometry x="300" width="40" height="40" as="geometry" />
        </mxCell>
        <mxCell id="QXv2AWhjhRIxDeLdODB5-44" value="&lt;font face=&quot;Times New Roman&quot; style=&quot;font-size: 18px;&quot;&gt;(a) Next token prediction&lt;/font&gt;" style="text;html=1;strokeColor=none;fillColor=none;align=center;verticalAlign=middle;whiteSpace=wrap;rounded=0;" parent="1" vertex="1">
          <mxGeometry x="90" y="210" width="200" height="30" as="geometry" />
        </mxCell>
        <mxCell id="QXv2AWhjhRIxDeLdODB5-394" style="edgeStyle=none;rounded=0;orthogonalLoop=1;jettySize=auto;html=1;exitX=0.5;exitY=0;exitDx=0;exitDy=0;entryX=0.5;entryY=1;entryDx=0;entryDy=0;" parent="1" source="QXv2AWhjhRIxDeLdODB5-61" target="QXv2AWhjhRIxDeLdODB5-367" edge="1">
          <mxGeometry relative="1" as="geometry" />
        </mxCell>
        <mxCell id="QXv2AWhjhRIxDeLdODB5-61" value="&lt;font face=&quot;Times New Roman&quot;&gt;Tok0&lt;/font&gt;" style="ellipse;whiteSpace=wrap;html=1;aspect=fixed;fillColor=#e1d5e7;strokeColor=#9673a6;" parent="1" vertex="1">
          <mxGeometry x="430" y="160" width="40" height="40" as="geometry" />
        </mxCell>
        <mxCell id="QXv2AWhjhRIxDeLdODB5-396" style="edgeStyle=none;rounded=0;orthogonalLoop=1;jettySize=auto;html=1;exitX=0.5;exitY=0;exitDx=0;exitDy=0;entryX=0.5;entryY=1;entryDx=0;entryDy=0;" parent="1" source="QXv2AWhjhRIxDeLdODB5-63" target="QXv2AWhjhRIxDeLdODB5-371" edge="1">
          <mxGeometry relative="1" as="geometry" />
        </mxCell>
        <mxCell id="QXv2AWhjhRIxDeLdODB5-63" value="&lt;font face=&quot;Times New Roman&quot;&gt;Tok1&lt;/font&gt;" style="ellipse;whiteSpace=wrap;html=1;aspect=fixed;fillColor=#e1d5e7;strokeColor=#9673a6;" parent="1" vertex="1">
          <mxGeometry x="510" y="160" width="40" height="40" as="geometry" />
        </mxCell>
        <mxCell id="QXv2AWhjhRIxDeLdODB5-399" style="edgeStyle=none;rounded=0;orthogonalLoop=1;jettySize=auto;html=1;exitX=0.5;exitY=0;exitDx=0;exitDy=0;entryX=0.5;entryY=1;entryDx=0;entryDy=0;" parent="1" source="QXv2AWhjhRIxDeLdODB5-65" target="QXv2AWhjhRIxDeLdODB5-374" edge="1">
          <mxGeometry relative="1" as="geometry" />
        </mxCell>
        <mxCell id="QXv2AWhjhRIxDeLdODB5-65" value="&lt;font face=&quot;Times New Roman&quot;&gt;Tok2&lt;/font&gt;" style="ellipse;whiteSpace=wrap;html=1;aspect=fixed;fillColor=#e1d5e7;strokeColor=#9673a6;" parent="1" vertex="1">
          <mxGeometry x="590" y="160" width="40" height="40" as="geometry" />
        </mxCell>
        <mxCell id="QXv2AWhjhRIxDeLdODB5-400" style="edgeStyle=none;rounded=0;orthogonalLoop=1;jettySize=auto;html=1;exitX=0.5;exitY=0;exitDx=0;exitDy=0;entryX=0.5;entryY=1;entryDx=0;entryDy=0;" parent="1" source="QXv2AWhjhRIxDeLdODB5-67" target="QXv2AWhjhRIxDeLdODB5-381" edge="1">
          <mxGeometry relative="1" as="geometry" />
        </mxCell>
        <mxCell id="QXv2AWhjhRIxDeLdODB5-67" value="&lt;font face=&quot;Times New Roman&quot;&gt;SOS&lt;/font&gt;" style="ellipse;whiteSpace=wrap;html=1;aspect=fixed;fillColor=#e1d5e7;strokeColor=#9673a6;" parent="1" vertex="1">
          <mxGeometry x="670" y="160" width="40" height="40" as="geometry" />
        </mxCell>
        <mxCell id="QXv2AWhjhRIxDeLdODB5-402" style="edgeStyle=none;rounded=0;orthogonalLoop=1;jettySize=auto;html=1;exitX=0.5;exitY=0;exitDx=0;exitDy=0;entryX=0.5;entryY=1;entryDx=0;entryDy=0;" parent="1" source="QXv2AWhjhRIxDeLdODB5-69" target="QXv2AWhjhRIxDeLdODB5-384" edge="1">
          <mxGeometry relative="1" as="geometry" />
        </mxCell>
        <mxCell id="QXv2AWhjhRIxDeLdODB5-69" value="&lt;font face=&quot;Times New Roman&quot;&gt;Tokn&lt;/font&gt;" style="ellipse;whiteSpace=wrap;html=1;aspect=fixed;fillColor=#e1d5e7;strokeColor=#9673a6;" parent="1" vertex="1">
          <mxGeometry x="770" y="160" width="40" height="40" as="geometry" />
        </mxCell>
        <mxCell id="QXv2AWhjhRIxDeLdODB5-71" value="&lt;font face=&quot;Times New Roman&quot;&gt;Tok0&lt;/font&gt;" style="ellipse;whiteSpace=wrap;html=1;aspect=fixed;" parent="1" vertex="1">
          <mxGeometry x="430" width="40" height="40" as="geometry" />
        </mxCell>
        <mxCell id="QXv2AWhjhRIxDeLdODB5-73" value="&lt;font face=&quot;Times New Roman&quot;&gt;Tok1&lt;/font&gt;" style="ellipse;whiteSpace=wrap;html=1;aspect=fixed;" parent="1" vertex="1">
          <mxGeometry x="510" width="40" height="40" as="geometry" />
        </mxCell>
        <mxCell id="QXv2AWhjhRIxDeLdODB5-75" value="&lt;font face=&quot;Times New Roman&quot;&gt;Tok2&lt;/font&gt;" style="ellipse;whiteSpace=wrap;html=1;aspect=fixed;" parent="1" vertex="1">
          <mxGeometry x="590" width="40" height="40" as="geometry" />
        </mxCell>
        <mxCell id="QXv2AWhjhRIxDeLdODB5-76" value="&lt;font face=&quot;Times New Roman&quot;&gt;Tok3&lt;/font&gt;" style="ellipse;whiteSpace=wrap;html=1;aspect=fixed;fillColor=#f8cecc;strokeColor=#b85450;" parent="1" vertex="1">
          <mxGeometry x="670" width="40" height="40" as="geometry" />
        </mxCell>
        <mxCell id="QXv2AWhjhRIxDeLdODB5-77" value="&lt;font face=&quot;Times New Roman&quot;&gt;EOS&lt;/font&gt;" style="ellipse;whiteSpace=wrap;html=1;aspect=fixed;fillColor=#f8cecc;strokeColor=#b85450;" parent="1" vertex="1">
          <mxGeometry x="770" width="40" height="40" as="geometry" />
        </mxCell>
        <mxCell id="QXv2AWhjhRIxDeLdODB5-83" value="&lt;font style=&quot;font-size: 18px;&quot; face=&quot;Times New Roman&quot;&gt;(b) Prefix-LM&lt;/font&gt;" style="text;html=1;strokeColor=none;fillColor=none;align=center;verticalAlign=middle;whiteSpace=wrap;rounded=0;" parent="1" vertex="1">
          <mxGeometry x="550" y="210" width="120" height="30" as="geometry" />
        </mxCell>
        <mxCell id="QXv2AWhjhRIxDeLdODB5-469" style="edgeStyle=none;rounded=0;orthogonalLoop=1;jettySize=auto;html=1;exitX=0.5;exitY=0;exitDx=0;exitDy=0;entryX=0.5;entryY=1;entryDx=0;entryDy=0;" parent="1" source="QXv2AWhjhRIxDeLdODB5-100" target="QXv2AWhjhRIxDeLdODB5-422" edge="1">
          <mxGeometry relative="1" as="geometry" />
        </mxCell>
        <mxCell id="QXv2AWhjhRIxDeLdODB5-100" value="&lt;font face=&quot;Times New Roman&quot;&gt;Tok0&lt;/font&gt;" style="ellipse;whiteSpace=wrap;html=1;aspect=fixed;fillColor=#e1d5e7;strokeColor=#9673a6;" parent="1" vertex="1">
          <mxGeometry x="40" y="440" width="40" height="40" as="geometry" />
        </mxCell>
        <mxCell id="QXv2AWhjhRIxDeLdODB5-470" style="edgeStyle=none;rounded=0;orthogonalLoop=1;jettySize=auto;html=1;exitX=0.5;exitY=0;exitDx=0;exitDy=0;entryX=0.5;entryY=1;entryDx=0;entryDy=0;" parent="1" source="QXv2AWhjhRIxDeLdODB5-102" target="QXv2AWhjhRIxDeLdODB5-426" edge="1">
          <mxGeometry relative="1" as="geometry" />
        </mxCell>
        <mxCell id="QXv2AWhjhRIxDeLdODB5-102" value="&lt;font face=&quot;Times New Roman&quot;&gt;Tok1&lt;/font&gt;" style="ellipse;whiteSpace=wrap;html=1;aspect=fixed;fillColor=#e1d5e7;strokeColor=#9673a6;" parent="1" vertex="1">
          <mxGeometry x="120" y="440" width="40" height="40" as="geometry" />
        </mxCell>
        <mxCell id="QXv2AWhjhRIxDeLdODB5-478" style="edgeStyle=none;rounded=0;orthogonalLoop=1;jettySize=auto;html=1;exitX=0.5;exitY=0;exitDx=0;exitDy=0;entryX=0.5;entryY=1;entryDx=0;entryDy=0;" parent="1" source="QXv2AWhjhRIxDeLdODB5-104" target="QXv2AWhjhRIxDeLdODB5-442" edge="1">
          <mxGeometry relative="1" as="geometry" />
        </mxCell>
        <mxCell id="QXv2AWhjhRIxDeLdODB5-104" value="&lt;font face=&quot;Times New Roman&quot;&gt;Tok4&lt;/font&gt;" style="ellipse;whiteSpace=wrap;html=1;aspect=fixed;fillColor=#e1d5e7;strokeColor=#9673a6;" parent="1" vertex="1">
          <mxGeometry x="440" y="440" width="40" height="40" as="geometry" />
        </mxCell>
        <mxCell id="QXv2AWhjhRIxDeLdODB5-481" style="edgeStyle=none;rounded=0;orthogonalLoop=1;jettySize=auto;html=1;exitX=0.5;exitY=0;exitDx=0;exitDy=0;entryX=0.5;entryY=1;entryDx=0;entryDy=0;" parent="1" source="QXv2AWhjhRIxDeLdODB5-106" target="QXv2AWhjhRIxDeLdODB5-444" edge="1">
          <mxGeometry relative="1" as="geometry" />
        </mxCell>
        <mxCell id="QXv2AWhjhRIxDeLdODB5-106" value="&lt;font face=&quot;Times New Roman&quot;&gt;Tok5&lt;/font&gt;" style="ellipse;whiteSpace=wrap;html=1;aspect=fixed;fillColor=#e1d5e7;strokeColor=#9673a6;" parent="1" vertex="1">
          <mxGeometry x="520" y="440" width="40" height="40" as="geometry" />
        </mxCell>
        <mxCell id="QXv2AWhjhRIxDeLdODB5-109" value="&lt;font face=&quot;Times New Roman&quot;&gt;Tok0&lt;/font&gt;" style="ellipse;whiteSpace=wrap;html=1;aspect=fixed;" parent="1" vertex="1">
          <mxGeometry x="40" y="280" width="40" height="40" as="geometry" />
        </mxCell>
        <mxCell id="QXv2AWhjhRIxDeLdODB5-110" value="&lt;font face=&quot;Times New Roman&quot;&gt;Tok1&lt;/font&gt;" style="ellipse;whiteSpace=wrap;html=1;aspect=fixed;" parent="1" vertex="1">
          <mxGeometry x="120" y="280" width="40" height="40" as="geometry" />
        </mxCell>
        <mxCell id="QXv2AWhjhRIxDeLdODB5-112" value="&lt;font face=&quot;Times New Roman&quot;&gt;Tok4&lt;/font&gt;" style="ellipse;whiteSpace=wrap;html=1;aspect=fixed;" parent="1" vertex="1">
          <mxGeometry x="440" y="280" width="40" height="40" as="geometry" />
        </mxCell>
        <mxCell id="QXv2AWhjhRIxDeLdODB5-113" value="&lt;font face=&quot;Times New Roman&quot;&gt;Tok5&lt;/font&gt;" style="ellipse;whiteSpace=wrap;html=1;aspect=fixed;" parent="1" vertex="1">
          <mxGeometry x="520" y="280" width="40" height="40" as="geometry" />
        </mxCell>
        <mxCell id="QXv2AWhjhRIxDeLdODB5-116" value="&lt;font style=&quot;font-size: 18px;&quot; face=&quot;Times New Roman&quot;&gt;(c) Auto-regressive blank filling&lt;/font&gt;" style="text;html=1;strokeColor=none;fillColor=none;align=center;verticalAlign=middle;whiteSpace=wrap;rounded=0;" parent="1" vertex="1">
          <mxGeometry x="200" y="490" width="246" height="30" as="geometry" />
        </mxCell>
        <mxCell id="QXv2AWhjhRIxDeLdODB5-473" style="edgeStyle=none;rounded=0;orthogonalLoop=1;jettySize=auto;html=1;exitX=0.5;exitY=0;exitDx=0;exitDy=0;entryX=0.5;entryY=1;entryDx=0;entryDy=0;" parent="1" source="QXv2AWhjhRIxDeLdODB5-166" target="QXv2AWhjhRIxDeLdODB5-430" edge="1">
          <mxGeometry relative="1" as="geometry" />
        </mxCell>
        <mxCell id="QXv2AWhjhRIxDeLdODB5-166" value="&lt;font face=&quot;Times New Roman&quot;&gt;SOP&lt;/font&gt;" style="ellipse;whiteSpace=wrap;html=1;aspect=fixed;fillColor=#e1d5e7;strokeColor=#9673a6;" parent="1" vertex="1">
          <mxGeometry x="200" y="440" width="40" height="40" as="geometry" />
        </mxCell>
        <mxCell id="QXv2AWhjhRIxDeLdODB5-475" style="edgeStyle=none;rounded=0;orthogonalLoop=1;jettySize=auto;html=1;exitX=0.5;exitY=0;exitDx=0;exitDy=0;entryX=0.5;entryY=1;entryDx=0;entryDy=0;" parent="1" source="QXv2AWhjhRIxDeLdODB5-168" target="QXv2AWhjhRIxDeLdODB5-435" edge="1">
          <mxGeometry relative="1" as="geometry" />
        </mxCell>
        <mxCell id="QXv2AWhjhRIxDeLdODB5-168" value="&lt;font face=&quot;Times New Roman&quot;&gt;Tok2&lt;/font&gt;" style="ellipse;whiteSpace=wrap;html=1;aspect=fixed;fillColor=#e1d5e7;strokeColor=#9673a6;" parent="1" vertex="1">
          <mxGeometry x="280" y="440" width="40" height="40" as="geometry" />
        </mxCell>
        <mxCell id="QXv2AWhjhRIxDeLdODB5-172" value="&lt;font face=&quot;Times New Roman&quot;&gt;Tok2&lt;/font&gt;" style="ellipse;whiteSpace=wrap;html=1;aspect=fixed;fillColor=#f8cecc;strokeColor=#b85450;" parent="1" vertex="1">
          <mxGeometry x="200" y="280" width="40" height="40" as="geometry" />
        </mxCell>
        <mxCell id="QXv2AWhjhRIxDeLdODB5-173" value="&lt;font face=&quot;Times New Roman&quot;&gt;Tok3&lt;/font&gt;" style="ellipse;whiteSpace=wrap;html=1;aspect=fixed;fillColor=#f8cecc;strokeColor=#b85450;" parent="1" vertex="1">
          <mxGeometry x="280" y="280" width="40" height="40" as="geometry" />
        </mxCell>
        <mxCell id="QXv2AWhjhRIxDeLdODB5-476" style="edgeStyle=none;rounded=0;orthogonalLoop=1;jettySize=auto;html=1;exitX=0.5;exitY=0;exitDx=0;exitDy=0;entryX=0.5;entryY=1;entryDx=0;entryDy=0;" parent="1" source="QXv2AWhjhRIxDeLdODB5-194" target="QXv2AWhjhRIxDeLdODB5-437" edge="1">
          <mxGeometry relative="1" as="geometry" />
        </mxCell>
        <mxCell id="QXv2AWhjhRIxDeLdODB5-194" value="&lt;font face=&quot;Times New Roman&quot;&gt;Tok3&lt;/font&gt;" style="ellipse;whiteSpace=wrap;html=1;aspect=fixed;fillColor=#e1d5e7;strokeColor=#9673a6;" parent="1" vertex="1">
          <mxGeometry x="360" y="440" width="40" height="40" as="geometry" />
        </mxCell>
        <mxCell id="QXv2AWhjhRIxDeLdODB5-195" value="&lt;font face=&quot;Times New Roman&quot;&gt;EOP&lt;/font&gt;" style="ellipse;whiteSpace=wrap;html=1;aspect=fixed;fillColor=#f8cecc;strokeColor=#b85450;" parent="1" vertex="1">
          <mxGeometry x="360" y="280" width="40" height="40" as="geometry" />
        </mxCell>
        <mxCell id="QXv2AWhjhRIxDeLdODB5-252" value="&lt;font face=&quot;Times New Roman&quot;&gt;BOS&lt;/font&gt;" style="ellipse;whiteSpace=wrap;html=1;aspect=fixed;fillColor=#e1d5e7;strokeColor=#9673a6;" parent="1" vertex="1">
          <mxGeometry x="600" y="720" width="40" height="40" as="geometry" />
        </mxCell>
        <mxCell id="QXv2AWhjhRIxDeLdODB5-254" value="&lt;font face=&quot;Times New Roman&quot;&gt;Tok5&lt;/font&gt;" style="ellipse;whiteSpace=wrap;html=1;aspect=fixed;fillColor=#e1d5e7;strokeColor=#9673a6;" parent="1" vertex="1">
          <mxGeometry x="680" y="720" width="40" height="40" as="geometry" />
        </mxCell>
        <mxCell id="QXv2AWhjhRIxDeLdODB5-256" value="&lt;font face=&quot;Times New Roman&quot;&gt;Tokn&lt;/font&gt;" style="ellipse;whiteSpace=wrap;html=1;aspect=fixed;fillColor=#e1d5e7;strokeColor=#9673a6;" parent="1" vertex="1">
          <mxGeometry x="780" y="720" width="40" height="40" as="geometry" />
        </mxCell>
        <mxCell id="QXv2AWhjhRIxDeLdODB5-258" value="&lt;font face=&quot;Times New Roman&quot;&gt;Tok6&lt;/font&gt;" style="ellipse;whiteSpace=wrap;html=1;aspect=fixed;fillColor=#f8cecc;strokeColor=#b85450;" parent="1" vertex="1">
          <mxGeometry x="600" y="560" width="40" height="40" as="geometry" />
        </mxCell>
        <mxCell id="QXv2AWhjhRIxDeLdODB5-259" value="&lt;font face=&quot;Times New Roman&quot;&gt;Tok7&lt;/font&gt;" style="ellipse;whiteSpace=wrap;html=1;aspect=fixed;fillColor=#f8cecc;strokeColor=#b85450;" parent="1" vertex="1">
          <mxGeometry x="680" y="560" width="40" height="40" as="geometry" />
        </mxCell>
        <mxCell id="QXv2AWhjhRIxDeLdODB5-260" value="&lt;font face=&quot;Times New Roman&quot;&gt;EOS&lt;/font&gt;" style="ellipse;whiteSpace=wrap;html=1;aspect=fixed;fillColor=#f8cecc;strokeColor=#b85450;" parent="1" vertex="1">
          <mxGeometry x="780" y="560" width="40" height="40" as="geometry" />
        </mxCell>
        <mxCell id="QXv2AWhjhRIxDeLdODB5-304" value="&lt;font style=&quot;font-size: 18px;&quot; face=&quot;Times New Roman&quot;&gt;(d) Multitask&lt;/font&gt;" style="text;html=1;strokeColor=none;fillColor=none;align=center;verticalAlign=middle;whiteSpace=wrap;rounded=0;" parent="1" vertex="1">
          <mxGeometry x="350" y="775" width="170" height="30" as="geometry" />
        </mxCell>
        <mxCell id="QXv2AWhjhRIxDeLdODB5-337" style="rounded=0;orthogonalLoop=1;jettySize=auto;html=1;exitX=0.5;exitY=0;exitDx=0;exitDy=0;entryX=0.5;entryY=1;entryDx=0;entryDy=0;endArrow=none;endFill=0;" parent="1" source="QXv2AWhjhRIxDeLdODB5-332" target="QXv2AWhjhRIxDeLdODB5-1" edge="1">
          <mxGeometry relative="1" as="geometry" />
        </mxCell>
        <mxCell id="QXv2AWhjhRIxDeLdODB5-339" style="edgeStyle=none;rounded=0;orthogonalLoop=1;jettySize=auto;html=1;exitX=0.5;exitY=0;exitDx=0;exitDy=0;entryX=0.5;entryY=1;entryDx=0;entryDy=0;endArrow=none;endFill=0;" parent="1" source="QXv2AWhjhRIxDeLdODB5-332" target="QXv2AWhjhRIxDeLdODB5-2" edge="1">
          <mxGeometry relative="1" as="geometry" />
        </mxCell>
        <mxCell id="QXv2AWhjhRIxDeLdODB5-340" style="edgeStyle=none;rounded=0;orthogonalLoop=1;jettySize=auto;html=1;exitX=0.5;exitY=0;exitDx=0;exitDy=0;entryX=0.5;entryY=1;entryDx=0;entryDy=0;endArrow=none;endFill=0;" parent="1" source="QXv2AWhjhRIxDeLdODB5-332" target="QXv2AWhjhRIxDeLdODB5-3" edge="1">
          <mxGeometry relative="1" as="geometry" />
        </mxCell>
        <mxCell id="QXv2AWhjhRIxDeLdODB5-341" style="edgeStyle=none;rounded=0;orthogonalLoop=1;jettySize=auto;html=1;exitX=0.5;exitY=0;exitDx=0;exitDy=0;entryX=0.5;entryY=1;entryDx=0;entryDy=0;endArrow=none;endFill=0;" parent="1" source="QXv2AWhjhRIxDeLdODB5-332" target="QXv2AWhjhRIxDeLdODB5-5" edge="1">
          <mxGeometry relative="1" as="geometry" />
        </mxCell>
        <mxCell id="QXv2AWhjhRIxDeLdODB5-332" value="" style="rounded=1;whiteSpace=wrap;html=1;fillColor=#dae8fc;strokeColor=#6c8ebf;" parent="1" vertex="1">
          <mxGeometry x="40" y="110" width="40" height="20" as="geometry" />
        </mxCell>
        <mxCell id="QXv2AWhjhRIxDeLdODB5-342" style="rounded=0;orthogonalLoop=1;jettySize=auto;html=1;exitX=0.5;exitY=0;exitDx=0;exitDy=0;entryX=0.5;entryY=1;entryDx=0;entryDy=0;endArrow=none;endFill=0;" parent="1" source="QXv2AWhjhRIxDeLdODB5-333" target="QXv2AWhjhRIxDeLdODB5-2" edge="1">
          <mxGeometry relative="1" as="geometry" />
        </mxCell>
        <mxCell id="QXv2AWhjhRIxDeLdODB5-343" style="rounded=0;orthogonalLoop=1;jettySize=auto;html=1;exitX=0.5;exitY=0;exitDx=0;exitDy=0;endArrow=none;endFill=0;" parent="1" source="QXv2AWhjhRIxDeLdODB5-333" edge="1">
          <mxGeometry relative="1" as="geometry">
            <mxPoint x="220" y="90" as="targetPoint" />
          </mxGeometry>
        </mxCell>
        <mxCell id="QXv2AWhjhRIxDeLdODB5-344" style="edgeStyle=none;rounded=0;orthogonalLoop=1;jettySize=auto;html=1;exitX=0.5;exitY=0;exitDx=0;exitDy=0;endArrow=none;endFill=0;" parent="1" source="QXv2AWhjhRIxDeLdODB5-333" edge="1">
          <mxGeometry relative="1" as="geometry">
            <mxPoint x="320" y="90" as="targetPoint" />
          </mxGeometry>
        </mxCell>
        <mxCell id="QXv2AWhjhRIxDeLdODB5-333" value="" style="rounded=1;whiteSpace=wrap;html=1;fillColor=#dae8fc;strokeColor=#6c8ebf;" parent="1" vertex="1">
          <mxGeometry x="120" y="110" width="40" height="20" as="geometry" />
        </mxCell>
        <mxCell id="QXv2AWhjhRIxDeLdODB5-345" style="edgeStyle=none;rounded=0;orthogonalLoop=1;jettySize=auto;html=1;exitX=0.5;exitY=0;exitDx=0;exitDy=0;endArrow=none;endFill=0;" parent="1" source="QXv2AWhjhRIxDeLdODB5-334" edge="1">
          <mxGeometry relative="1" as="geometry">
            <mxPoint x="220" y="90" as="targetPoint" />
          </mxGeometry>
        </mxCell>
        <mxCell id="QXv2AWhjhRIxDeLdODB5-346" style="edgeStyle=none;rounded=0;orthogonalLoop=1;jettySize=auto;html=1;exitX=0.5;exitY=0;exitDx=0;exitDy=0;endArrow=none;endFill=0;" parent="1" source="QXv2AWhjhRIxDeLdODB5-334" edge="1">
          <mxGeometry relative="1" as="geometry">
            <mxPoint x="320" y="90" as="targetPoint" />
          </mxGeometry>
        </mxCell>
        <mxCell id="QXv2AWhjhRIxDeLdODB5-334" value="" style="rounded=1;whiteSpace=wrap;html=1;fillColor=#dae8fc;strokeColor=#6c8ebf;" parent="1" vertex="1">
          <mxGeometry x="200" y="110" width="40" height="20" as="geometry" />
        </mxCell>
        <mxCell id="QXv2AWhjhRIxDeLdODB5-347" style="edgeStyle=none;rounded=0;orthogonalLoop=1;jettySize=auto;html=1;exitX=0.5;exitY=0;exitDx=0;exitDy=0;endArrow=none;endFill=0;" parent="1" source="QXv2AWhjhRIxDeLdODB5-335" edge="1">
          <mxGeometry relative="1" as="geometry">
            <mxPoint x="320" y="90" as="targetPoint" />
          </mxGeometry>
        </mxCell>
        <mxCell id="QXv2AWhjhRIxDeLdODB5-335" value="" style="rounded=1;whiteSpace=wrap;html=1;fillColor=#dae8fc;strokeColor=#6c8ebf;" parent="1" vertex="1">
          <mxGeometry x="300" y="110" width="40" height="20" as="geometry" />
        </mxCell>
        <mxCell id="QXv2AWhjhRIxDeLdODB5-356" value="" style="endArrow=none;dashed=1;html=1;dashPattern=1 3;strokeWidth=3;rounded=0;" parent="1" edge="1">
          <mxGeometry width="50" height="50" relative="1" as="geometry">
            <mxPoint x="250" y="120" as="sourcePoint" />
            <mxPoint x="290" y="120" as="targetPoint" />
          </mxGeometry>
        </mxCell>
        <mxCell id="QXv2AWhjhRIxDeLdODB5-358" value="" style="endArrow=none;dashed=1;html=1;dashPattern=1 3;strokeWidth=3;rounded=0;" parent="1" edge="1">
          <mxGeometry width="50" height="50" relative="1" as="geometry">
            <mxPoint x="250" y="80" as="sourcePoint" />
            <mxPoint x="290" y="80" as="targetPoint" />
          </mxGeometry>
        </mxCell>
        <mxCell id="QXv2AWhjhRIxDeLdODB5-393" style="edgeStyle=none;rounded=0;orthogonalLoop=1;jettySize=auto;html=1;exitX=0.5;exitY=0;exitDx=0;exitDy=0;entryX=0.5;entryY=1;entryDx=0;entryDy=0;" parent="1" source="QXv2AWhjhRIxDeLdODB5-359" target="QXv2AWhjhRIxDeLdODB5-71" edge="1">
          <mxGeometry relative="1" as="geometry" />
        </mxCell>
        <mxCell id="QXv2AWhjhRIxDeLdODB5-359" value="" style="rounded=1;whiteSpace=wrap;html=1;" parent="1" vertex="1">
          <mxGeometry x="430" y="70" width="40" height="20" as="geometry" />
        </mxCell>
        <mxCell id="QXv2AWhjhRIxDeLdODB5-395" style="edgeStyle=none;rounded=0;orthogonalLoop=1;jettySize=auto;html=1;exitX=0.5;exitY=0;exitDx=0;exitDy=0;entryX=0.5;entryY=1;entryDx=0;entryDy=0;" parent="1" source="QXv2AWhjhRIxDeLdODB5-360" target="QXv2AWhjhRIxDeLdODB5-73" edge="1">
          <mxGeometry relative="1" as="geometry" />
        </mxCell>
        <mxCell id="QXv2AWhjhRIxDeLdODB5-360" value="" style="rounded=1;whiteSpace=wrap;html=1;" parent="1" vertex="1">
          <mxGeometry x="510" y="70" width="40" height="20" as="geometry" />
        </mxCell>
        <mxCell id="QXv2AWhjhRIxDeLdODB5-397" style="edgeStyle=none;rounded=0;orthogonalLoop=1;jettySize=auto;html=1;exitX=0.5;exitY=0;exitDx=0;exitDy=0;entryX=0.5;entryY=1;entryDx=0;entryDy=0;" parent="1" source="QXv2AWhjhRIxDeLdODB5-361" target="QXv2AWhjhRIxDeLdODB5-75" edge="1">
          <mxGeometry relative="1" as="geometry" />
        </mxCell>
        <mxCell id="QXv2AWhjhRIxDeLdODB5-361" value="" style="rounded=1;whiteSpace=wrap;html=1;" parent="1" vertex="1">
          <mxGeometry x="590" y="70" width="40" height="20" as="geometry" />
        </mxCell>
        <mxCell id="QXv2AWhjhRIxDeLdODB5-363" style="rounded=0;orthogonalLoop=1;jettySize=auto;html=1;exitX=0.5;exitY=0;exitDx=0;exitDy=0;entryX=0.5;entryY=1;entryDx=0;entryDy=0;endArrow=none;endFill=0;strokeColor=#CCCCCC;" parent="1" source="QXv2AWhjhRIxDeLdODB5-367" target="QXv2AWhjhRIxDeLdODB5-359" edge="1">
          <mxGeometry relative="1" as="geometry" />
        </mxCell>
        <mxCell id="QXv2AWhjhRIxDeLdODB5-364" style="edgeStyle=none;rounded=0;orthogonalLoop=1;jettySize=auto;html=1;exitX=0.5;exitY=0;exitDx=0;exitDy=0;entryX=0.5;entryY=1;entryDx=0;entryDy=0;endArrow=none;endFill=0;strokeColor=#CCCCCC;" parent="1" source="QXv2AWhjhRIxDeLdODB5-367" target="QXv2AWhjhRIxDeLdODB5-360" edge="1">
          <mxGeometry relative="1" as="geometry" />
        </mxCell>
        <mxCell id="QXv2AWhjhRIxDeLdODB5-365" style="edgeStyle=none;rounded=0;orthogonalLoop=1;jettySize=auto;html=1;exitX=0.5;exitY=0;exitDx=0;exitDy=0;entryX=0.5;entryY=1;entryDx=0;entryDy=0;endArrow=none;endFill=0;strokeColor=#CCCCCC;" parent="1" source="QXv2AWhjhRIxDeLdODB5-367" target="QXv2AWhjhRIxDeLdODB5-361" edge="1">
          <mxGeometry relative="1" as="geometry" />
        </mxCell>
        <mxCell id="X6Ject07PG_0QIPXkM_A-17" style="edgeStyle=none;rounded=0;orthogonalLoop=1;jettySize=auto;html=1;exitX=0.5;exitY=0;exitDx=0;exitDy=0;entryX=0.5;entryY=1;entryDx=0;entryDy=0;endArrow=none;endFill=0;" edge="1" parent="1" source="QXv2AWhjhRIxDeLdODB5-367" target="QXv2AWhjhRIxDeLdODB5-379">
          <mxGeometry relative="1" as="geometry" />
        </mxCell>
        <mxCell id="QXv2AWhjhRIxDeLdODB5-367" value="" style="rounded=1;whiteSpace=wrap;html=1;" parent="1" vertex="1">
          <mxGeometry x="430" y="110" width="40" height="20" as="geometry" />
        </mxCell>
        <mxCell id="QXv2AWhjhRIxDeLdODB5-368" style="rounded=0;orthogonalLoop=1;jettySize=auto;html=1;exitX=0.5;exitY=0;exitDx=0;exitDy=0;entryX=0.5;entryY=1;entryDx=0;entryDy=0;endArrow=none;endFill=0;strokeColor=#CCCCCC;" parent="1" source="QXv2AWhjhRIxDeLdODB5-371" target="QXv2AWhjhRIxDeLdODB5-360" edge="1">
          <mxGeometry relative="1" as="geometry" />
        </mxCell>
        <mxCell id="QXv2AWhjhRIxDeLdODB5-369" style="rounded=0;orthogonalLoop=1;jettySize=auto;html=1;exitX=0.5;exitY=0;exitDx=0;exitDy=0;endArrow=none;endFill=0;strokeColor=#CCCCCC;" parent="1" source="QXv2AWhjhRIxDeLdODB5-371" edge="1">
          <mxGeometry relative="1" as="geometry">
            <mxPoint x="610" y="90" as="targetPoint" />
          </mxGeometry>
        </mxCell>
        <mxCell id="QXv2AWhjhRIxDeLdODB5-389" style="edgeStyle=none;rounded=0;orthogonalLoop=1;jettySize=auto;html=1;exitX=0.5;exitY=0;exitDx=0;exitDy=0;entryX=0.5;entryY=1;entryDx=0;entryDy=0;endArrow=none;endFill=0;strokeColor=#CCCCCC;" parent="1" source="QXv2AWhjhRIxDeLdODB5-371" target="QXv2AWhjhRIxDeLdODB5-359" edge="1">
          <mxGeometry relative="1" as="geometry" />
        </mxCell>
        <mxCell id="QXv2AWhjhRIxDeLdODB5-412" style="edgeStyle=none;rounded=0;orthogonalLoop=1;jettySize=auto;html=1;exitX=0.5;exitY=0;exitDx=0;exitDy=0;endArrow=none;endFill=0;" parent="1" source="QXv2AWhjhRIxDeLdODB5-371" edge="1">
          <mxGeometry relative="1" as="geometry">
            <mxPoint x="690" y="90.00000000000006" as="targetPoint" />
          </mxGeometry>
        </mxCell>
        <mxCell id="QXv2AWhjhRIxDeLdODB5-413" style="edgeStyle=none;rounded=0;orthogonalLoop=1;jettySize=auto;html=1;exitX=0.5;exitY=0;exitDx=0;exitDy=0;endArrow=none;endFill=0;" parent="1" source="QXv2AWhjhRIxDeLdODB5-371" edge="1">
          <mxGeometry relative="1" as="geometry">
            <mxPoint x="790" y="90.00000000000006" as="targetPoint" />
          </mxGeometry>
        </mxCell>
        <mxCell id="QXv2AWhjhRIxDeLdODB5-371" value="" style="rounded=1;whiteSpace=wrap;html=1;" parent="1" vertex="1">
          <mxGeometry x="510" y="110" width="40" height="20" as="geometry" />
        </mxCell>
        <mxCell id="QXv2AWhjhRIxDeLdODB5-372" style="edgeStyle=none;rounded=0;orthogonalLoop=1;jettySize=auto;html=1;exitX=0.5;exitY=0;exitDx=0;exitDy=0;endArrow=none;endFill=0;strokeColor=#CCCCCC;" parent="1" source="QXv2AWhjhRIxDeLdODB5-374" edge="1">
          <mxGeometry relative="1" as="geometry">
            <mxPoint x="610" y="90" as="targetPoint" />
          </mxGeometry>
        </mxCell>
        <mxCell id="QXv2AWhjhRIxDeLdODB5-390" style="edgeStyle=none;rounded=0;orthogonalLoop=1;jettySize=auto;html=1;exitX=0.5;exitY=0;exitDx=0;exitDy=0;endArrow=none;endFill=0;" parent="1" source="QXv2AWhjhRIxDeLdODB5-374" edge="1">
          <mxGeometry relative="1" as="geometry">
            <mxPoint x="690" y="90" as="targetPoint" />
          </mxGeometry>
        </mxCell>
        <mxCell id="QXv2AWhjhRIxDeLdODB5-391" style="edgeStyle=none;rounded=0;orthogonalLoop=1;jettySize=auto;html=1;exitX=0.5;exitY=0;exitDx=0;exitDy=0;endArrow=none;endFill=0;" parent="1" source="QXv2AWhjhRIxDeLdODB5-374" edge="1">
          <mxGeometry relative="1" as="geometry">
            <mxPoint x="790" y="90" as="targetPoint" />
          </mxGeometry>
        </mxCell>
        <mxCell id="QXv2AWhjhRIxDeLdODB5-414" style="edgeStyle=none;rounded=0;orthogonalLoop=1;jettySize=auto;html=1;exitX=0.5;exitY=0;exitDx=0;exitDy=0;endArrow=none;endFill=0;strokeColor=#CCCCCC;" parent="1" source="QXv2AWhjhRIxDeLdODB5-374" edge="1">
          <mxGeometry relative="1" as="geometry">
            <mxPoint x="530" y="90" as="targetPoint" />
          </mxGeometry>
        </mxCell>
        <mxCell id="QXv2AWhjhRIxDeLdODB5-415" style="edgeStyle=none;rounded=0;orthogonalLoop=1;jettySize=auto;html=1;exitX=0.5;exitY=0;exitDx=0;exitDy=0;entryX=0.5;entryY=1;entryDx=0;entryDy=0;endArrow=none;endFill=0;strokeColor=#CCCCCC;" parent="1" source="QXv2AWhjhRIxDeLdODB5-374" target="QXv2AWhjhRIxDeLdODB5-359" edge="1">
          <mxGeometry relative="1" as="geometry" />
        </mxCell>
        <mxCell id="QXv2AWhjhRIxDeLdODB5-374" value="" style="rounded=1;whiteSpace=wrap;html=1;" parent="1" vertex="1">
          <mxGeometry x="590" y="110" width="40" height="20" as="geometry" />
        </mxCell>
        <mxCell id="QXv2AWhjhRIxDeLdODB5-401" style="edgeStyle=none;rounded=0;orthogonalLoop=1;jettySize=auto;html=1;exitX=0.5;exitY=0;exitDx=0;exitDy=0;entryX=0.5;entryY=1;entryDx=0;entryDy=0;" parent="1" source="QXv2AWhjhRIxDeLdODB5-379" target="QXv2AWhjhRIxDeLdODB5-76" edge="1">
          <mxGeometry relative="1" as="geometry" />
        </mxCell>
        <mxCell id="QXv2AWhjhRIxDeLdODB5-379" value="" style="rounded=1;whiteSpace=wrap;html=1;fillColor=#ffe6cc;strokeColor=#d79b00;" parent="1" vertex="1">
          <mxGeometry x="670" y="70" width="40" height="20" as="geometry" />
        </mxCell>
        <mxCell id="QXv2AWhjhRIxDeLdODB5-380" style="edgeStyle=none;rounded=0;orthogonalLoop=1;jettySize=auto;html=1;exitX=0.5;exitY=0;exitDx=0;exitDy=0;endArrow=none;endFill=0;" parent="1" source="QXv2AWhjhRIxDeLdODB5-381" edge="1">
          <mxGeometry relative="1" as="geometry">
            <mxPoint x="690" y="90" as="targetPoint" />
          </mxGeometry>
        </mxCell>
        <mxCell id="QXv2AWhjhRIxDeLdODB5-392" style="edgeStyle=none;rounded=0;orthogonalLoop=1;jettySize=auto;html=1;exitX=0.5;exitY=0;exitDx=0;exitDy=0;endArrow=none;endFill=0;" parent="1" source="QXv2AWhjhRIxDeLdODB5-381" edge="1">
          <mxGeometry relative="1" as="geometry">
            <mxPoint x="790" y="90" as="targetPoint" />
          </mxGeometry>
        </mxCell>
        <mxCell id="QXv2AWhjhRIxDeLdODB5-381" value="" style="rounded=1;whiteSpace=wrap;html=1;fillColor=#ffe6cc;strokeColor=#d79b00;" parent="1" vertex="1">
          <mxGeometry x="670" y="110" width="40" height="20" as="geometry" />
        </mxCell>
        <mxCell id="QXv2AWhjhRIxDeLdODB5-403" style="edgeStyle=none;rounded=0;orthogonalLoop=1;jettySize=auto;html=1;exitX=0.5;exitY=0;exitDx=0;exitDy=0;entryX=0.5;entryY=1;entryDx=0;entryDy=0;" parent="1" source="QXv2AWhjhRIxDeLdODB5-382" target="QXv2AWhjhRIxDeLdODB5-77" edge="1">
          <mxGeometry relative="1" as="geometry" />
        </mxCell>
        <mxCell id="QXv2AWhjhRIxDeLdODB5-382" value="" style="rounded=1;whiteSpace=wrap;html=1;fillColor=#ffe6cc;strokeColor=#d79b00;" parent="1" vertex="1">
          <mxGeometry x="770" y="70" width="40" height="20" as="geometry" />
        </mxCell>
        <mxCell id="QXv2AWhjhRIxDeLdODB5-383" style="edgeStyle=none;rounded=0;orthogonalLoop=1;jettySize=auto;html=1;exitX=0.5;exitY=0;exitDx=0;exitDy=0;endArrow=none;endFill=0;" parent="1" source="QXv2AWhjhRIxDeLdODB5-384" edge="1">
          <mxGeometry relative="1" as="geometry">
            <mxPoint x="790" y="90" as="targetPoint" />
          </mxGeometry>
        </mxCell>
        <mxCell id="QXv2AWhjhRIxDeLdODB5-384" value="" style="rounded=1;whiteSpace=wrap;html=1;fillColor=#ffe6cc;strokeColor=#d79b00;" parent="1" vertex="1">
          <mxGeometry x="770" y="110" width="40" height="20" as="geometry" />
        </mxCell>
        <mxCell id="QXv2AWhjhRIxDeLdODB5-404" value="" style="endArrow=none;dashed=1;html=1;dashPattern=1 3;strokeWidth=3;rounded=0;endFill=0;" parent="1" edge="1">
          <mxGeometry width="50" height="50" relative="1" as="geometry">
            <mxPoint x="720" y="79.68" as="sourcePoint" />
            <mxPoint x="760" y="79.68" as="targetPoint" />
          </mxGeometry>
        </mxCell>
        <mxCell id="QXv2AWhjhRIxDeLdODB5-405" value="" style="endArrow=none;dashed=1;html=1;dashPattern=1 3;strokeWidth=3;rounded=0;" parent="1" edge="1">
          <mxGeometry width="50" height="50" relative="1" as="geometry">
            <mxPoint x="720" y="119.68" as="sourcePoint" />
            <mxPoint x="760" y="119.68" as="targetPoint" />
          </mxGeometry>
        </mxCell>
        <mxCell id="QXv2AWhjhRIxDeLdODB5-468" style="edgeStyle=none;rounded=0;orthogonalLoop=1;jettySize=auto;html=1;exitX=0.5;exitY=0;exitDx=0;exitDy=0;entryX=0.5;entryY=1;entryDx=0;entryDy=0;" parent="1" source="QXv2AWhjhRIxDeLdODB5-416" target="QXv2AWhjhRIxDeLdODB5-109" edge="1">
          <mxGeometry relative="1" as="geometry" />
        </mxCell>
        <mxCell id="QXv2AWhjhRIxDeLdODB5-416" value="" style="rounded=1;whiteSpace=wrap;html=1;" parent="1" vertex="1">
          <mxGeometry x="40" y="343" width="40" height="20" as="geometry" />
        </mxCell>
        <mxCell id="QXv2AWhjhRIxDeLdODB5-471" style="edgeStyle=none;rounded=0;orthogonalLoop=1;jettySize=auto;html=1;exitX=0.5;exitY=0;exitDx=0;exitDy=0;entryX=0.5;entryY=1;entryDx=0;entryDy=0;" parent="1" source="QXv2AWhjhRIxDeLdODB5-417" target="QXv2AWhjhRIxDeLdODB5-110" edge="1">
          <mxGeometry relative="1" as="geometry" />
        </mxCell>
        <mxCell id="QXv2AWhjhRIxDeLdODB5-417" value="" style="rounded=1;whiteSpace=wrap;html=1;" parent="1" vertex="1">
          <mxGeometry x="120" y="343" width="40" height="20" as="geometry" />
        </mxCell>
        <mxCell id="QXv2AWhjhRIxDeLdODB5-472" style="edgeStyle=none;rounded=0;orthogonalLoop=1;jettySize=auto;html=1;exitX=0.5;exitY=0;exitDx=0;exitDy=0;entryX=0.5;entryY=1;entryDx=0;entryDy=0;" parent="1" source="QXv2AWhjhRIxDeLdODB5-418" target="QXv2AWhjhRIxDeLdODB5-172" edge="1">
          <mxGeometry relative="1" as="geometry" />
        </mxCell>
        <mxCell id="QXv2AWhjhRIxDeLdODB5-418" value="" style="rounded=1;whiteSpace=wrap;html=1;fillColor=#d5e8d4;strokeColor=#82b366;" parent="1" vertex="1">
          <mxGeometry x="200" y="343" width="40" height="20" as="geometry" />
        </mxCell>
        <mxCell id="QXv2AWhjhRIxDeLdODB5-419" style="rounded=0;orthogonalLoop=1;jettySize=auto;html=1;exitX=0.5;exitY=0;exitDx=0;exitDy=0;entryX=0.5;entryY=1;entryDx=0;entryDy=0;endArrow=none;endFill=0;strokeWidth=1;strokeColor=#CCCCCC;" parent="1" source="QXv2AWhjhRIxDeLdODB5-422" target="QXv2AWhjhRIxDeLdODB5-416" edge="1">
          <mxGeometry relative="1" as="geometry" />
        </mxCell>
        <mxCell id="QXv2AWhjhRIxDeLdODB5-420" style="edgeStyle=none;rounded=0;orthogonalLoop=1;jettySize=auto;html=1;exitX=0.5;exitY=0;exitDx=0;exitDy=0;entryX=0.5;entryY=1;entryDx=0;entryDy=0;endArrow=none;endFill=0;strokeWidth=1;strokeColor=#CCCCCC;" parent="1" source="QXv2AWhjhRIxDeLdODB5-422" target="QXv2AWhjhRIxDeLdODB5-417" edge="1">
          <mxGeometry relative="1" as="geometry" />
        </mxCell>
        <mxCell id="QXv2AWhjhRIxDeLdODB5-421" style="edgeStyle=none;rounded=0;orthogonalLoop=1;jettySize=auto;html=1;exitX=0.5;exitY=0;exitDx=0;exitDy=0;entryX=0.5;entryY=1;entryDx=0;entryDy=0;endArrow=none;endFill=0;strokeWidth=1;strokeColor=#CCCCCC;" parent="1" source="QXv2AWhjhRIxDeLdODB5-422" target="QXv2AWhjhRIxDeLdODB5-418" edge="1">
          <mxGeometry relative="1" as="geometry" />
        </mxCell>
        <mxCell id="X6Ject07PG_0QIPXkM_A-3" style="edgeStyle=none;rounded=0;orthogonalLoop=1;jettySize=auto;html=1;exitX=0.5;exitY=0;exitDx=0;exitDy=0;entryX=0.5;entryY=1;entryDx=0;entryDy=0;endArrow=none;endFill=0;strokeColor=#CCCCCC;" edge="1" parent="1" source="QXv2AWhjhRIxDeLdODB5-422" target="QXv2AWhjhRIxDeLdODB5-431">
          <mxGeometry relative="1" as="geometry" />
        </mxCell>
        <mxCell id="X6Ject07PG_0QIPXkM_A-6" style="edgeStyle=none;rounded=0;orthogonalLoop=1;jettySize=auto;html=1;exitX=0.5;exitY=0;exitDx=0;exitDy=0;entryX=0.5;entryY=1;entryDx=0;entryDy=0;endArrow=none;endFill=0;strokeColor=#CCCCCC;" edge="1" parent="1" source="QXv2AWhjhRIxDeLdODB5-422" target="QXv2AWhjhRIxDeLdODB5-432">
          <mxGeometry relative="1" as="geometry">
            <mxPoint x="380" y="360" as="targetPoint" />
          </mxGeometry>
        </mxCell>
        <mxCell id="QXv2AWhjhRIxDeLdODB5-422" value="" style="rounded=1;whiteSpace=wrap;html=1;" parent="1" vertex="1">
          <mxGeometry x="40" y="383" width="40" height="20" as="geometry" />
        </mxCell>
        <mxCell id="QXv2AWhjhRIxDeLdODB5-423" style="rounded=0;orthogonalLoop=1;jettySize=auto;html=1;exitX=0.5;exitY=0;exitDx=0;exitDy=0;entryX=0.5;entryY=1;entryDx=0;entryDy=0;endArrow=none;endFill=0;strokeWidth=1;strokeColor=#CCCCCC;" parent="1" source="QXv2AWhjhRIxDeLdODB5-426" target="QXv2AWhjhRIxDeLdODB5-417" edge="1">
          <mxGeometry relative="1" as="geometry" />
        </mxCell>
        <mxCell id="QXv2AWhjhRIxDeLdODB5-424" style="rounded=0;orthogonalLoop=1;jettySize=auto;html=1;exitX=0.5;exitY=0;exitDx=0;exitDy=0;endArrow=none;endFill=0;strokeWidth=1;strokeColor=#CCCCCC;" parent="1" source="QXv2AWhjhRIxDeLdODB5-426" edge="1">
          <mxGeometry relative="1" as="geometry">
            <mxPoint x="220" y="363" as="targetPoint" />
          </mxGeometry>
        </mxCell>
        <mxCell id="QXv2AWhjhRIxDeLdODB5-425" style="edgeStyle=none;rounded=0;orthogonalLoop=1;jettySize=auto;html=1;exitX=0.5;exitY=0;exitDx=0;exitDy=0;entryX=0.5;entryY=1;entryDx=0;entryDy=0;endArrow=none;endFill=0;strokeWidth=1;strokeColor=#CCCCCC;" parent="1" source="QXv2AWhjhRIxDeLdODB5-426" target="QXv2AWhjhRIxDeLdODB5-416" edge="1">
          <mxGeometry relative="1" as="geometry" />
        </mxCell>
        <mxCell id="X6Ject07PG_0QIPXkM_A-2" style="edgeStyle=none;rounded=0;orthogonalLoop=1;jettySize=auto;html=1;exitX=0.5;exitY=0;exitDx=0;exitDy=0;entryX=0.5;entryY=1;entryDx=0;entryDy=0;endArrow=none;endFill=0;strokeColor=#CCCCCC;" edge="1" parent="1" source="QXv2AWhjhRIxDeLdODB5-426" target="QXv2AWhjhRIxDeLdODB5-431">
          <mxGeometry relative="1" as="geometry">
            <mxPoint x="260" y="370" as="targetPoint" />
          </mxGeometry>
        </mxCell>
        <mxCell id="X6Ject07PG_0QIPXkM_A-5" style="edgeStyle=none;rounded=0;orthogonalLoop=1;jettySize=auto;html=1;exitX=0.5;exitY=0;exitDx=0;exitDy=0;entryX=0.5;entryY=1;entryDx=0;entryDy=0;endArrow=none;endFill=0;strokeColor=#CCCCCC;" edge="1" parent="1" source="QXv2AWhjhRIxDeLdODB5-426" target="QXv2AWhjhRIxDeLdODB5-432">
          <mxGeometry relative="1" as="geometry" />
        </mxCell>
        <mxCell id="QXv2AWhjhRIxDeLdODB5-426" value="" style="rounded=1;whiteSpace=wrap;html=1;" parent="1" vertex="1">
          <mxGeometry x="120" y="383" width="40" height="20" as="geometry" />
        </mxCell>
        <mxCell id="QXv2AWhjhRIxDeLdODB5-427" style="edgeStyle=none;rounded=0;orthogonalLoop=1;jettySize=auto;html=1;exitX=0.5;exitY=0;exitDx=0;exitDy=0;endArrow=none;endFill=0;strokeWidth=1;strokeColor=#000000;" parent="1" source="QXv2AWhjhRIxDeLdODB5-430" edge="1">
          <mxGeometry relative="1" as="geometry">
            <mxPoint x="220" y="363" as="targetPoint" />
          </mxGeometry>
        </mxCell>
        <mxCell id="QXv2AWhjhRIxDeLdODB5-446" style="edgeStyle=none;rounded=0;orthogonalLoop=1;jettySize=auto;html=1;exitX=0.5;exitY=0;exitDx=0;exitDy=0;entryX=0.5;entryY=1;entryDx=0;entryDy=0;endArrow=none;endFill=0;strokeWidth=1;strokeColor=#000000;" parent="1" source="QXv2AWhjhRIxDeLdODB5-430" target="QXv2AWhjhRIxDeLdODB5-431" edge="1">
          <mxGeometry relative="1" as="geometry" />
        </mxCell>
        <mxCell id="QXv2AWhjhRIxDeLdODB5-447" style="edgeStyle=none;rounded=0;orthogonalLoop=1;jettySize=auto;html=1;exitX=0.5;exitY=0;exitDx=0;exitDy=0;entryX=0.5;entryY=1;entryDx=0;entryDy=0;endArrow=none;endFill=0;strokeWidth=1;strokeColor=#000000;" parent="1" source="QXv2AWhjhRIxDeLdODB5-430" target="QXv2AWhjhRIxDeLdODB5-432" edge="1">
          <mxGeometry relative="1" as="geometry" />
        </mxCell>
        <mxCell id="QXv2AWhjhRIxDeLdODB5-430" value="" style="rounded=1;whiteSpace=wrap;html=1;fillColor=#d5e8d4;strokeColor=#82b366;" parent="1" vertex="1">
          <mxGeometry x="200" y="383" width="40" height="20" as="geometry" />
        </mxCell>
        <mxCell id="QXv2AWhjhRIxDeLdODB5-474" style="edgeStyle=none;rounded=0;orthogonalLoop=1;jettySize=auto;html=1;exitX=0.5;exitY=0;exitDx=0;exitDy=0;entryX=0.5;entryY=1;entryDx=0;entryDy=0;" parent="1" source="QXv2AWhjhRIxDeLdODB5-431" target="QXv2AWhjhRIxDeLdODB5-173" edge="1">
          <mxGeometry relative="1" as="geometry" />
        </mxCell>
        <mxCell id="QXv2AWhjhRIxDeLdODB5-431" value="" style="rounded=1;whiteSpace=wrap;html=1;fillColor=#d5e8d4;strokeColor=#82b366;" parent="1" vertex="1">
          <mxGeometry x="280" y="343" width="40" height="20" as="geometry" />
        </mxCell>
        <mxCell id="QXv2AWhjhRIxDeLdODB5-477" style="edgeStyle=none;rounded=0;orthogonalLoop=1;jettySize=auto;html=1;exitX=0.5;exitY=0;exitDx=0;exitDy=0;entryX=0.5;entryY=1;entryDx=0;entryDy=0;" parent="1" source="QXv2AWhjhRIxDeLdODB5-432" target="QXv2AWhjhRIxDeLdODB5-195" edge="1">
          <mxGeometry relative="1" as="geometry" />
        </mxCell>
        <mxCell id="QXv2AWhjhRIxDeLdODB5-432" value="" style="rounded=1;whiteSpace=wrap;html=1;fillColor=#d5e8d4;strokeColor=#82b366;" parent="1" vertex="1">
          <mxGeometry x="360" y="343" width="40" height="20" as="geometry" />
        </mxCell>
        <mxCell id="QXv2AWhjhRIxDeLdODB5-433" style="rounded=0;orthogonalLoop=1;jettySize=auto;html=1;exitX=0.5;exitY=0;exitDx=0;exitDy=0;entryX=0.5;entryY=1;entryDx=0;entryDy=0;endArrow=none;endFill=0;strokeWidth=1;strokeColor=#000000;" parent="1" source="QXv2AWhjhRIxDeLdODB5-435" target="QXv2AWhjhRIxDeLdODB5-431" edge="1">
          <mxGeometry relative="1" as="geometry" />
        </mxCell>
        <mxCell id="QXv2AWhjhRIxDeLdODB5-434" style="rounded=0;orthogonalLoop=1;jettySize=auto;html=1;exitX=0.5;exitY=0;exitDx=0;exitDy=0;endArrow=none;endFill=0;strokeWidth=1;strokeColor=#000000;" parent="1" source="QXv2AWhjhRIxDeLdODB5-435" edge="1">
          <mxGeometry relative="1" as="geometry">
            <mxPoint x="380" y="363" as="targetPoint" />
          </mxGeometry>
        </mxCell>
        <mxCell id="QXv2AWhjhRIxDeLdODB5-435" value="" style="rounded=1;whiteSpace=wrap;html=1;fillColor=#d5e8d4;strokeColor=#82b366;" parent="1" vertex="1">
          <mxGeometry x="280" y="383" width="40" height="20" as="geometry" />
        </mxCell>
        <mxCell id="QXv2AWhjhRIxDeLdODB5-436" style="edgeStyle=none;rounded=0;orthogonalLoop=1;jettySize=auto;html=1;exitX=0.5;exitY=0;exitDx=0;exitDy=0;endArrow=none;endFill=0;strokeWidth=1;strokeColor=#000000;" parent="1" source="QXv2AWhjhRIxDeLdODB5-437" edge="1">
          <mxGeometry relative="1" as="geometry">
            <mxPoint x="380" y="363" as="targetPoint" />
          </mxGeometry>
        </mxCell>
        <mxCell id="QXv2AWhjhRIxDeLdODB5-437" value="" style="rounded=1;whiteSpace=wrap;html=1;fillColor=#d5e8d4;strokeColor=#82b366;" parent="1" vertex="1">
          <mxGeometry x="360" y="383" width="40" height="20" as="geometry" />
        </mxCell>
        <mxCell id="QXv2AWhjhRIxDeLdODB5-479" style="edgeStyle=none;rounded=0;orthogonalLoop=1;jettySize=auto;html=1;exitX=0.5;exitY=0;exitDx=0;exitDy=0;entryX=0.5;entryY=1;entryDx=0;entryDy=0;" parent="1" source="QXv2AWhjhRIxDeLdODB5-438" target="QXv2AWhjhRIxDeLdODB5-112" edge="1">
          <mxGeometry relative="1" as="geometry" />
        </mxCell>
        <mxCell id="QXv2AWhjhRIxDeLdODB5-438" value="" style="rounded=1;whiteSpace=wrap;html=1;" parent="1" vertex="1">
          <mxGeometry x="440" y="343" width="40" height="20" as="geometry" />
        </mxCell>
        <mxCell id="QXv2AWhjhRIxDeLdODB5-480" style="edgeStyle=none;rounded=0;orthogonalLoop=1;jettySize=auto;html=1;exitX=0.5;exitY=0;exitDx=0;exitDy=0;entryX=0.5;entryY=1;entryDx=0;entryDy=0;" parent="1" source="QXv2AWhjhRIxDeLdODB5-439" target="QXv2AWhjhRIxDeLdODB5-113" edge="1">
          <mxGeometry relative="1" as="geometry" />
        </mxCell>
        <mxCell id="QXv2AWhjhRIxDeLdODB5-439" value="" style="rounded=1;whiteSpace=wrap;html=1;" parent="1" vertex="1">
          <mxGeometry x="520" y="343" width="40" height="20" as="geometry" />
        </mxCell>
        <mxCell id="QXv2AWhjhRIxDeLdODB5-440" style="rounded=0;orthogonalLoop=1;jettySize=auto;html=1;exitX=0.5;exitY=0;exitDx=0;exitDy=0;entryX=0.5;entryY=1;entryDx=0;entryDy=0;endArrow=none;endFill=0;strokeWidth=1;strokeColor=#CCCCCC;" parent="1" source="QXv2AWhjhRIxDeLdODB5-442" target="QXv2AWhjhRIxDeLdODB5-438" edge="1">
          <mxGeometry relative="1" as="geometry" />
        </mxCell>
        <mxCell id="QXv2AWhjhRIxDeLdODB5-441" style="rounded=0;orthogonalLoop=1;jettySize=auto;html=1;exitX=0.5;exitY=0;exitDx=0;exitDy=0;endArrow=none;endFill=0;strokeWidth=1;strokeColor=#CCCCCC;" parent="1" source="QXv2AWhjhRIxDeLdODB5-442" edge="1">
          <mxGeometry relative="1" as="geometry">
            <mxPoint x="540" y="363" as="targetPoint" />
          </mxGeometry>
        </mxCell>
        <mxCell id="QXv2AWhjhRIxDeLdODB5-465" style="edgeStyle=none;rounded=0;orthogonalLoop=1;jettySize=auto;html=1;exitX=0.5;exitY=0;exitDx=0;exitDy=0;entryX=0.5;entryY=1;entryDx=0;entryDy=0;endArrow=none;endFill=0;strokeWidth=1;strokeColor=#CCCCCC;" parent="1" source="QXv2AWhjhRIxDeLdODB5-442" target="QXv2AWhjhRIxDeLdODB5-418" edge="1">
          <mxGeometry relative="1" as="geometry" />
        </mxCell>
        <mxCell id="QXv2AWhjhRIxDeLdODB5-466" style="edgeStyle=none;rounded=0;orthogonalLoop=1;jettySize=auto;html=1;exitX=0.5;exitY=0;exitDx=0;exitDy=0;entryX=0.5;entryY=1;entryDx=0;entryDy=0;endArrow=none;endFill=0;strokeWidth=1;strokeColor=#CCCCCC;" parent="1" source="QXv2AWhjhRIxDeLdODB5-442" target="QXv2AWhjhRIxDeLdODB5-431" edge="1">
          <mxGeometry relative="1" as="geometry" />
        </mxCell>
        <mxCell id="QXv2AWhjhRIxDeLdODB5-467" style="edgeStyle=none;rounded=0;orthogonalLoop=1;jettySize=auto;html=1;exitX=0.5;exitY=0;exitDx=0;exitDy=0;entryX=0.5;entryY=1;entryDx=0;entryDy=0;endArrow=none;endFill=0;strokeWidth=1;strokeColor=#CCCCCC;" parent="1" source="QXv2AWhjhRIxDeLdODB5-442" target="QXv2AWhjhRIxDeLdODB5-432" edge="1">
          <mxGeometry relative="1" as="geometry" />
        </mxCell>
        <mxCell id="X6Ject07PG_0QIPXkM_A-7" style="edgeStyle=none;rounded=0;orthogonalLoop=1;jettySize=auto;html=1;exitX=0.5;exitY=0;exitDx=0;exitDy=0;entryX=0.5;entryY=1;entryDx=0;entryDy=0;strokeColor=#CCCCCC;endArrow=none;endFill=0;" edge="1" parent="1" source="QXv2AWhjhRIxDeLdODB5-442" target="QXv2AWhjhRIxDeLdODB5-417">
          <mxGeometry relative="1" as="geometry" />
        </mxCell>
        <mxCell id="QXv2AWhjhRIxDeLdODB5-442" value="" style="rounded=1;whiteSpace=wrap;html=1;" parent="1" vertex="1">
          <mxGeometry x="440" y="383" width="40" height="20" as="geometry" />
        </mxCell>
        <mxCell id="QXv2AWhjhRIxDeLdODB5-443" style="edgeStyle=none;rounded=0;orthogonalLoop=1;jettySize=auto;html=1;exitX=0.5;exitY=0;exitDx=0;exitDy=0;endArrow=none;endFill=0;strokeWidth=1;strokeColor=#CCCCCC;" parent="1" source="QXv2AWhjhRIxDeLdODB5-444" edge="1">
          <mxGeometry relative="1" as="geometry">
            <mxPoint x="540" y="363" as="targetPoint" />
          </mxGeometry>
        </mxCell>
        <mxCell id="QXv2AWhjhRIxDeLdODB5-445" style="edgeStyle=none;rounded=0;orthogonalLoop=1;jettySize=auto;html=1;exitX=0.5;exitY=0;exitDx=0;exitDy=0;entryX=0.5;entryY=1;entryDx=0;entryDy=0;endArrow=none;endFill=0;strokeWidth=1;strokeColor=#CCCCCC;" parent="1" source="QXv2AWhjhRIxDeLdODB5-444" target="QXv2AWhjhRIxDeLdODB5-438" edge="1">
          <mxGeometry relative="1" as="geometry" />
        </mxCell>
        <mxCell id="QXv2AWhjhRIxDeLdODB5-464" style="edgeStyle=none;rounded=0;orthogonalLoop=1;jettySize=auto;html=1;exitX=0.5;exitY=0;exitDx=0;exitDy=0;entryX=0.5;entryY=1;entryDx=0;entryDy=0;endArrow=none;endFill=0;strokeWidth=1;strokeColor=#CCCCCC;" parent="1" source="QXv2AWhjhRIxDeLdODB5-444" target="QXv2AWhjhRIxDeLdODB5-432" edge="1">
          <mxGeometry relative="1" as="geometry" />
        </mxCell>
        <mxCell id="X6Ject07PG_0QIPXkM_A-8" style="edgeStyle=none;rounded=0;orthogonalLoop=1;jettySize=auto;html=1;exitX=0.5;exitY=0;exitDx=0;exitDy=0;entryX=0.5;entryY=1;entryDx=0;entryDy=0;endArrow=none;endFill=0;strokeColor=#CCCCCC;" edge="1" parent="1" source="QXv2AWhjhRIxDeLdODB5-444" target="QXv2AWhjhRIxDeLdODB5-418">
          <mxGeometry relative="1" as="geometry">
            <mxPoint x="220" y="360" as="targetPoint" />
          </mxGeometry>
        </mxCell>
        <mxCell id="QXv2AWhjhRIxDeLdODB5-444" value="" style="rounded=1;whiteSpace=wrap;html=1;" parent="1" vertex="1">
          <mxGeometry x="520" y="383" width="40" height="20" as="geometry" />
        </mxCell>
        <mxCell id="QXv2AWhjhRIxDeLdODB5-613" style="edgeStyle=none;rounded=0;orthogonalLoop=1;jettySize=auto;html=1;exitX=0.5;exitY=0;exitDx=0;exitDy=0;entryX=0.5;entryY=1;entryDx=0;entryDy=0;" parent="1" source="QXv2AWhjhRIxDeLdODB5-534" target="QXv2AWhjhRIxDeLdODB5-258" edge="1">
          <mxGeometry relative="1" as="geometry" />
        </mxCell>
        <mxCell id="QXv2AWhjhRIxDeLdODB5-534" value="" style="rounded=1;whiteSpace=wrap;html=1;fillColor=#ffe6cc;strokeColor=#d79b00;" parent="1" vertex="1">
          <mxGeometry x="600" y="623" width="40" height="20" as="geometry" />
        </mxCell>
        <mxCell id="QXv2AWhjhRIxDeLdODB5-535" style="edgeStyle=none;rounded=0;orthogonalLoop=1;jettySize=auto;html=1;exitX=0.5;exitY=0;exitDx=0;exitDy=0;endArrow=none;endFill=0;strokeWidth=1;strokeColor=#000000;" parent="1" source="QXv2AWhjhRIxDeLdODB5-538" edge="1">
          <mxGeometry relative="1" as="geometry">
            <mxPoint x="620" y="643" as="targetPoint" />
          </mxGeometry>
        </mxCell>
        <mxCell id="QXv2AWhjhRIxDeLdODB5-536" style="edgeStyle=none;rounded=0;orthogonalLoop=1;jettySize=auto;html=1;exitX=0.5;exitY=0;exitDx=0;exitDy=0;entryX=0.5;entryY=1;entryDx=0;entryDy=0;endArrow=none;endFill=0;strokeWidth=1;strokeColor=#000000;" parent="1" source="QXv2AWhjhRIxDeLdODB5-538" target="QXv2AWhjhRIxDeLdODB5-539" edge="1">
          <mxGeometry relative="1" as="geometry" />
        </mxCell>
        <mxCell id="QXv2AWhjhRIxDeLdODB5-537" style="edgeStyle=none;rounded=0;orthogonalLoop=1;jettySize=auto;html=1;exitX=0.5;exitY=0;exitDx=0;exitDy=0;entryX=0.5;entryY=1;entryDx=0;entryDy=0;endArrow=none;endFill=0;strokeWidth=1;strokeColor=#000000;" parent="1" source="QXv2AWhjhRIxDeLdODB5-538" target="QXv2AWhjhRIxDeLdODB5-540" edge="1">
          <mxGeometry relative="1" as="geometry" />
        </mxCell>
        <mxCell id="QXv2AWhjhRIxDeLdODB5-538" value="" style="rounded=1;whiteSpace=wrap;html=1;fillColor=#ffe6cc;strokeColor=#d79b00;" parent="1" vertex="1">
          <mxGeometry x="600" y="663" width="40" height="20" as="geometry" />
        </mxCell>
        <mxCell id="QXv2AWhjhRIxDeLdODB5-614" style="edgeStyle=none;rounded=0;orthogonalLoop=1;jettySize=auto;html=1;exitX=0.5;exitY=0;exitDx=0;exitDy=0;entryX=0.5;entryY=1;entryDx=0;entryDy=0;" parent="1" source="QXv2AWhjhRIxDeLdODB5-539" target="QXv2AWhjhRIxDeLdODB5-259" edge="1">
          <mxGeometry relative="1" as="geometry" />
        </mxCell>
        <mxCell id="QXv2AWhjhRIxDeLdODB5-539" value="" style="rounded=1;whiteSpace=wrap;html=1;fillColor=#ffe6cc;strokeColor=#d79b00;" parent="1" vertex="1">
          <mxGeometry x="680" y="623" width="40" height="20" as="geometry" />
        </mxCell>
        <mxCell id="QXv2AWhjhRIxDeLdODB5-615" style="edgeStyle=none;rounded=0;orthogonalLoop=1;jettySize=auto;html=1;exitX=0.5;exitY=0;exitDx=0;exitDy=0;entryX=0.5;entryY=1;entryDx=0;entryDy=0;" parent="1" source="QXv2AWhjhRIxDeLdODB5-540" target="QXv2AWhjhRIxDeLdODB5-260" edge="1">
          <mxGeometry relative="1" as="geometry" />
        </mxCell>
        <mxCell id="QXv2AWhjhRIxDeLdODB5-540" value="" style="rounded=1;whiteSpace=wrap;html=1;fillColor=#ffe6cc;strokeColor=#d79b00;" parent="1" vertex="1">
          <mxGeometry x="780" y="623" width="40" height="20" as="geometry" />
        </mxCell>
        <mxCell id="QXv2AWhjhRIxDeLdODB5-541" style="rounded=0;orthogonalLoop=1;jettySize=auto;html=1;exitX=0.5;exitY=0;exitDx=0;exitDy=0;entryX=0.5;entryY=1;entryDx=0;entryDy=0;endArrow=none;endFill=0;strokeWidth=1;strokeColor=#000000;" parent="1" source="QXv2AWhjhRIxDeLdODB5-543" target="QXv2AWhjhRIxDeLdODB5-539" edge="1">
          <mxGeometry relative="1" as="geometry" />
        </mxCell>
        <mxCell id="QXv2AWhjhRIxDeLdODB5-612" style="edgeStyle=none;rounded=0;orthogonalLoop=1;jettySize=auto;html=1;exitX=0.5;exitY=0;exitDx=0;exitDy=0;entryX=0.5;entryY=1;entryDx=0;entryDy=0;endArrow=none;endFill=0;" parent="1" source="QXv2AWhjhRIxDeLdODB5-543" target="QXv2AWhjhRIxDeLdODB5-540" edge="1">
          <mxGeometry relative="1" as="geometry" />
        </mxCell>
        <mxCell id="QXv2AWhjhRIxDeLdODB5-543" value="" style="rounded=1;whiteSpace=wrap;html=1;fillColor=#ffe6cc;strokeColor=#d79b00;" parent="1" vertex="1">
          <mxGeometry x="680" y="663" width="40" height="20" as="geometry" />
        </mxCell>
        <mxCell id="QXv2AWhjhRIxDeLdODB5-544" style="edgeStyle=none;rounded=0;orthogonalLoop=1;jettySize=auto;html=1;exitX=0.5;exitY=0;exitDx=0;exitDy=0;endArrow=none;endFill=0;strokeWidth=1;strokeColor=#000000;" parent="1" source="QXv2AWhjhRIxDeLdODB5-545" edge="1">
          <mxGeometry relative="1" as="geometry">
            <mxPoint x="800" y="643" as="targetPoint" />
          </mxGeometry>
        </mxCell>
        <mxCell id="QXv2AWhjhRIxDeLdODB5-545" value="" style="rounded=1;whiteSpace=wrap;html=1;fillColor=#ffe6cc;strokeColor=#d79b00;" parent="1" vertex="1">
          <mxGeometry x="780" y="663" width="40" height="20" as="geometry" />
        </mxCell>
        <mxCell id="QXv2AWhjhRIxDeLdODB5-546" style="edgeStyle=none;rounded=0;orthogonalLoop=1;jettySize=auto;html=1;exitX=0.5;exitY=0;exitDx=0;exitDy=0;entryX=0.5;entryY=1;entryDx=0;entryDy=0;" parent="1" source="QXv2AWhjhRIxDeLdODB5-547" target="QXv2AWhjhRIxDeLdODB5-576" edge="1">
          <mxGeometry relative="1" as="geometry" />
        </mxCell>
        <mxCell id="QXv2AWhjhRIxDeLdODB5-547" value="&lt;font face=&quot;Times New Roman&quot;&gt;Tok0&lt;/font&gt;" style="ellipse;whiteSpace=wrap;html=1;aspect=fixed;fillColor=#e1d5e7;strokeColor=#9673a6;" parent="1" vertex="1">
          <mxGeometry x="40" y="720" width="40" height="40" as="geometry" />
        </mxCell>
        <mxCell id="QXv2AWhjhRIxDeLdODB5-548" style="edgeStyle=none;rounded=0;orthogonalLoop=1;jettySize=auto;html=1;exitX=0.5;exitY=0;exitDx=0;exitDy=0;entryX=0.5;entryY=1;entryDx=0;entryDy=0;" parent="1" source="QXv2AWhjhRIxDeLdODB5-549" target="QXv2AWhjhRIxDeLdODB5-580" edge="1">
          <mxGeometry relative="1" as="geometry" />
        </mxCell>
        <mxCell id="QXv2AWhjhRIxDeLdODB5-549" value="&lt;font face=&quot;Times New Roman&quot;&gt;Tok1&lt;/font&gt;" style="ellipse;whiteSpace=wrap;html=1;aspect=fixed;fillColor=#e1d5e7;strokeColor=#9673a6;" parent="1" vertex="1">
          <mxGeometry x="120" y="720" width="40" height="40" as="geometry" />
        </mxCell>
        <mxCell id="QXv2AWhjhRIxDeLdODB5-550" style="edgeStyle=none;rounded=0;orthogonalLoop=1;jettySize=auto;html=1;exitX=0.5;exitY=0;exitDx=0;exitDy=0;entryX=0.5;entryY=1;entryDx=0;entryDy=0;" parent="1" source="QXv2AWhjhRIxDeLdODB5-551" target="QXv2AWhjhRIxDeLdODB5-603" edge="1">
          <mxGeometry relative="1" as="geometry" />
        </mxCell>
        <mxCell id="QXv2AWhjhRIxDeLdODB5-551" value="&lt;font face=&quot;Times New Roman&quot;&gt;Tok4&lt;/font&gt;" style="ellipse;whiteSpace=wrap;html=1;aspect=fixed;fillColor=#e1d5e7;strokeColor=#9673a6;" parent="1" vertex="1">
          <mxGeometry x="440" y="720" width="40" height="40" as="geometry" />
        </mxCell>
        <mxCell id="QXv2AWhjhRIxDeLdODB5-552" style="edgeStyle=none;rounded=0;orthogonalLoop=1;jettySize=auto;html=1;exitX=0.5;exitY=0;exitDx=0;exitDy=0;entryX=0.5;entryY=1;entryDx=0;entryDy=0;" parent="1" source="QXv2AWhjhRIxDeLdODB5-553" target="QXv2AWhjhRIxDeLdODB5-607" edge="1">
          <mxGeometry relative="1" as="geometry" />
        </mxCell>
        <mxCell id="QXv2AWhjhRIxDeLdODB5-553" value="&lt;font face=&quot;Times New Roman&quot;&gt;Tok5&lt;/font&gt;" style="ellipse;whiteSpace=wrap;html=1;aspect=fixed;fillColor=#e1d5e7;strokeColor=#9673a6;" parent="1" vertex="1">
          <mxGeometry x="520" y="720" width="40" height="40" as="geometry" />
        </mxCell>
        <mxCell id="QXv2AWhjhRIxDeLdODB5-554" value="&lt;font face=&quot;Times New Roman&quot;&gt;Tok0&lt;/font&gt;" style="ellipse;whiteSpace=wrap;html=1;aspect=fixed;" parent="1" vertex="1">
          <mxGeometry x="40" y="560" width="40" height="40" as="geometry" />
        </mxCell>
        <mxCell id="QXv2AWhjhRIxDeLdODB5-555" value="&lt;font face=&quot;Times New Roman&quot;&gt;Tok1&lt;/font&gt;" style="ellipse;whiteSpace=wrap;html=1;aspect=fixed;" parent="1" vertex="1">
          <mxGeometry x="120" y="560" width="40" height="40" as="geometry" />
        </mxCell>
        <mxCell id="QXv2AWhjhRIxDeLdODB5-556" value="&lt;font face=&quot;Times New Roman&quot;&gt;Tok4&lt;/font&gt;" style="ellipse;whiteSpace=wrap;html=1;aspect=fixed;" parent="1" vertex="1">
          <mxGeometry x="440" y="560" width="40" height="40" as="geometry" />
        </mxCell>
        <mxCell id="QXv2AWhjhRIxDeLdODB5-557" value="&lt;font face=&quot;Times New Roman&quot;&gt;Tok5&lt;/font&gt;" style="ellipse;whiteSpace=wrap;html=1;aspect=fixed;" parent="1" vertex="1">
          <mxGeometry x="520" y="560" width="40" height="40" as="geometry" />
        </mxCell>
        <mxCell id="QXv2AWhjhRIxDeLdODB5-558" style="edgeStyle=none;rounded=0;orthogonalLoop=1;jettySize=auto;html=1;exitX=0.5;exitY=0;exitDx=0;exitDy=0;entryX=0.5;entryY=1;entryDx=0;entryDy=0;" parent="1" source="QXv2AWhjhRIxDeLdODB5-559" target="QXv2AWhjhRIxDeLdODB5-584" edge="1">
          <mxGeometry relative="1" as="geometry" />
        </mxCell>
        <mxCell id="QXv2AWhjhRIxDeLdODB5-559" value="&lt;font face=&quot;Times New Roman&quot;&gt;SOP&lt;/font&gt;" style="ellipse;whiteSpace=wrap;html=1;aspect=fixed;fillColor=#e1d5e7;strokeColor=#9673a6;" parent="1" vertex="1">
          <mxGeometry x="200" y="720" width="40" height="40" as="geometry" />
        </mxCell>
        <mxCell id="QXv2AWhjhRIxDeLdODB5-560" style="edgeStyle=none;rounded=0;orthogonalLoop=1;jettySize=auto;html=1;exitX=0.5;exitY=0;exitDx=0;exitDy=0;entryX=0.5;entryY=1;entryDx=0;entryDy=0;" parent="1" source="QXv2AWhjhRIxDeLdODB5-561" target="QXv2AWhjhRIxDeLdODB5-591" edge="1">
          <mxGeometry relative="1" as="geometry" />
        </mxCell>
        <mxCell id="QXv2AWhjhRIxDeLdODB5-561" value="&lt;font face=&quot;Times New Roman&quot;&gt;Tok2&lt;/font&gt;" style="ellipse;whiteSpace=wrap;html=1;aspect=fixed;fillColor=#e1d5e7;strokeColor=#9673a6;" parent="1" vertex="1">
          <mxGeometry x="280" y="720" width="40" height="40" as="geometry" />
        </mxCell>
        <mxCell id="QXv2AWhjhRIxDeLdODB5-562" value="&lt;font face=&quot;Times New Roman&quot;&gt;Tok2&lt;/font&gt;" style="ellipse;whiteSpace=wrap;html=1;aspect=fixed;fillColor=#f8cecc;strokeColor=#b85450;" parent="1" vertex="1">
          <mxGeometry x="200" y="560" width="40" height="40" as="geometry" />
        </mxCell>
        <mxCell id="QXv2AWhjhRIxDeLdODB5-563" value="&lt;font face=&quot;Times New Roman&quot;&gt;Tok3&lt;/font&gt;" style="ellipse;whiteSpace=wrap;html=1;aspect=fixed;fillColor=#f8cecc;strokeColor=#b85450;" parent="1" vertex="1">
          <mxGeometry x="280" y="560" width="40" height="40" as="geometry" />
        </mxCell>
        <mxCell id="QXv2AWhjhRIxDeLdODB5-564" style="edgeStyle=none;rounded=0;orthogonalLoop=1;jettySize=auto;html=1;exitX=0.5;exitY=0;exitDx=0;exitDy=0;entryX=0.5;entryY=1;entryDx=0;entryDy=0;" parent="1" source="QXv2AWhjhRIxDeLdODB5-565" target="QXv2AWhjhRIxDeLdODB5-593" edge="1">
          <mxGeometry relative="1" as="geometry" />
        </mxCell>
        <mxCell id="QXv2AWhjhRIxDeLdODB5-565" value="&lt;font face=&quot;Times New Roman&quot;&gt;Tok3&lt;/font&gt;" style="ellipse;whiteSpace=wrap;html=1;aspect=fixed;fillColor=#e1d5e7;strokeColor=#9673a6;" parent="1" vertex="1">
          <mxGeometry x="360" y="720" width="40" height="40" as="geometry" />
        </mxCell>
        <mxCell id="QXv2AWhjhRIxDeLdODB5-566" value="&lt;font face=&quot;Times New Roman&quot;&gt;EOP&lt;/font&gt;" style="ellipse;whiteSpace=wrap;html=1;aspect=fixed;fillColor=#f8cecc;strokeColor=#b85450;" parent="1" vertex="1">
          <mxGeometry x="360" y="560" width="40" height="40" as="geometry" />
        </mxCell>
        <mxCell id="QXv2AWhjhRIxDeLdODB5-567" style="edgeStyle=none;rounded=0;orthogonalLoop=1;jettySize=auto;html=1;exitX=0.5;exitY=0;exitDx=0;exitDy=0;entryX=0.5;entryY=1;entryDx=0;entryDy=0;" parent="1" source="QXv2AWhjhRIxDeLdODB5-568" target="QXv2AWhjhRIxDeLdODB5-554" edge="1">
          <mxGeometry relative="1" as="geometry" />
        </mxCell>
        <mxCell id="QXv2AWhjhRIxDeLdODB5-568" value="" style="rounded=1;whiteSpace=wrap;html=1;" parent="1" vertex="1">
          <mxGeometry x="40" y="623" width="40" height="20" as="geometry" />
        </mxCell>
        <mxCell id="QXv2AWhjhRIxDeLdODB5-569" style="edgeStyle=none;rounded=0;orthogonalLoop=1;jettySize=auto;html=1;exitX=0.5;exitY=0;exitDx=0;exitDy=0;entryX=0.5;entryY=1;entryDx=0;entryDy=0;" parent="1" source="QXv2AWhjhRIxDeLdODB5-570" target="QXv2AWhjhRIxDeLdODB5-555" edge="1">
          <mxGeometry relative="1" as="geometry" />
        </mxCell>
        <mxCell id="QXv2AWhjhRIxDeLdODB5-570" value="" style="rounded=1;whiteSpace=wrap;html=1;" parent="1" vertex="1">
          <mxGeometry x="120" y="623" width="40" height="20" as="geometry" />
        </mxCell>
        <mxCell id="QXv2AWhjhRIxDeLdODB5-571" style="edgeStyle=none;rounded=0;orthogonalLoop=1;jettySize=auto;html=1;exitX=0.5;exitY=0;exitDx=0;exitDy=0;entryX=0.5;entryY=1;entryDx=0;entryDy=0;" parent="1" source="QXv2AWhjhRIxDeLdODB5-572" target="QXv2AWhjhRIxDeLdODB5-562" edge="1">
          <mxGeometry relative="1" as="geometry" />
        </mxCell>
        <mxCell id="QXv2AWhjhRIxDeLdODB5-572" value="" style="rounded=1;whiteSpace=wrap;html=1;fillColor=#d5e8d4;strokeColor=#82b366;" parent="1" vertex="1">
          <mxGeometry x="200" y="623" width="40" height="20" as="geometry" />
        </mxCell>
        <mxCell id="QXv2AWhjhRIxDeLdODB5-573" style="rounded=0;orthogonalLoop=1;jettySize=auto;html=1;exitX=0.5;exitY=0;exitDx=0;exitDy=0;entryX=0.5;entryY=1;entryDx=0;entryDy=0;endArrow=none;endFill=0;strokeWidth=1;strokeColor=#CCCCCC;" parent="1" source="QXv2AWhjhRIxDeLdODB5-576" target="QXv2AWhjhRIxDeLdODB5-568" edge="1">
          <mxGeometry relative="1" as="geometry" />
        </mxCell>
        <mxCell id="QXv2AWhjhRIxDeLdODB5-574" style="edgeStyle=none;rounded=0;orthogonalLoop=1;jettySize=auto;html=1;exitX=0.5;exitY=0;exitDx=0;exitDy=0;entryX=0.5;entryY=1;entryDx=0;entryDy=0;endArrow=none;endFill=0;strokeWidth=1;strokeColor=#CCCCCC;" parent="1" source="QXv2AWhjhRIxDeLdODB5-576" target="QXv2AWhjhRIxDeLdODB5-570" edge="1">
          <mxGeometry relative="1" as="geometry" />
        </mxCell>
        <mxCell id="QXv2AWhjhRIxDeLdODB5-575" style="edgeStyle=none;rounded=0;orthogonalLoop=1;jettySize=auto;html=1;exitX=0.5;exitY=0;exitDx=0;exitDy=0;entryX=0.5;entryY=1;entryDx=0;entryDy=0;endArrow=none;endFill=0;strokeWidth=1;strokeColor=#CCCCCC;" parent="1" source="QXv2AWhjhRIxDeLdODB5-576" target="QXv2AWhjhRIxDeLdODB5-572" edge="1">
          <mxGeometry relative="1" as="geometry" />
        </mxCell>
        <mxCell id="X6Ject07PG_0QIPXkM_A-10" style="edgeStyle=none;rounded=0;orthogonalLoop=1;jettySize=auto;html=1;exitX=0.5;exitY=0;exitDx=0;exitDy=0;entryX=0.5;entryY=1;entryDx=0;entryDy=0;endArrow=none;endFill=0;strokeColor=#CCCCCC;" edge="1" parent="1" source="QXv2AWhjhRIxDeLdODB5-576" target="QXv2AWhjhRIxDeLdODB5-586">
          <mxGeometry relative="1" as="geometry" />
        </mxCell>
        <mxCell id="X6Ject07PG_0QIPXkM_A-16" style="edgeStyle=none;rounded=0;orthogonalLoop=1;jettySize=auto;html=1;exitX=0.5;exitY=0;exitDx=0;exitDy=0;entryX=0.5;entryY=1;entryDx=0;entryDy=0;endArrow=none;endFill=0;" edge="1" parent="1" source="QXv2AWhjhRIxDeLdODB5-576" target="QXv2AWhjhRIxDeLdODB5-534">
          <mxGeometry relative="1" as="geometry">
            <mxPoint x="619.9999999999998" y="640" as="targetPoint" />
          </mxGeometry>
        </mxCell>
        <mxCell id="QXv2AWhjhRIxDeLdODB5-576" value="" style="rounded=1;whiteSpace=wrap;html=1;" parent="1" vertex="1">
          <mxGeometry x="40" y="663" width="40" height="20" as="geometry" />
        </mxCell>
        <mxCell id="QXv2AWhjhRIxDeLdODB5-577" style="rounded=0;orthogonalLoop=1;jettySize=auto;html=1;exitX=0.5;exitY=0;exitDx=0;exitDy=0;entryX=0.5;entryY=1;entryDx=0;entryDy=0;endArrow=none;endFill=0;strokeWidth=1;strokeColor=#CCCCCC;" parent="1" source="QXv2AWhjhRIxDeLdODB5-580" target="QXv2AWhjhRIxDeLdODB5-570" edge="1">
          <mxGeometry relative="1" as="geometry" />
        </mxCell>
        <mxCell id="QXv2AWhjhRIxDeLdODB5-578" style="rounded=0;orthogonalLoop=1;jettySize=auto;html=1;exitX=0.5;exitY=0;exitDx=0;exitDy=0;endArrow=none;endFill=0;strokeWidth=1;strokeColor=#CCCCCC;" parent="1" source="QXv2AWhjhRIxDeLdODB5-580" edge="1">
          <mxGeometry relative="1" as="geometry">
            <mxPoint x="220" y="643" as="targetPoint" />
          </mxGeometry>
        </mxCell>
        <mxCell id="X6Ject07PG_0QIPXkM_A-9" style="edgeStyle=none;rounded=0;orthogonalLoop=1;jettySize=auto;html=1;exitX=0.5;exitY=0;exitDx=0;exitDy=0;entryX=0.5;entryY=1;entryDx=0;entryDy=0;endArrow=none;endFill=0;strokeColor=#CCCCCC;" edge="1" parent="1" source="QXv2AWhjhRIxDeLdODB5-580" target="QXv2AWhjhRIxDeLdODB5-586">
          <mxGeometry relative="1" as="geometry" />
        </mxCell>
        <mxCell id="X6Ject07PG_0QIPXkM_A-11" style="edgeStyle=none;rounded=0;orthogonalLoop=1;jettySize=auto;html=1;exitX=0.5;exitY=0;exitDx=0;exitDy=0;entryX=0.5;entryY=1;entryDx=0;entryDy=0;strokeColor=#CCCCCC;endArrow=none;endFill=0;" edge="1" parent="1" source="QXv2AWhjhRIxDeLdODB5-580" target="QXv2AWhjhRIxDeLdODB5-588">
          <mxGeometry relative="1" as="geometry" />
        </mxCell>
        <mxCell id="X6Ject07PG_0QIPXkM_A-12" style="edgeStyle=none;rounded=0;orthogonalLoop=1;jettySize=auto;html=1;exitX=0.5;exitY=0;exitDx=0;exitDy=0;entryX=0.5;entryY=1;entryDx=0;entryDy=0;endArrow=none;endFill=0;strokeColor=#CCCCCC;" edge="1" parent="1" source="QXv2AWhjhRIxDeLdODB5-580" target="QXv2AWhjhRIxDeLdODB5-568">
          <mxGeometry relative="1" as="geometry" />
        </mxCell>
        <mxCell id="X6Ject07PG_0QIPXkM_A-15" style="edgeStyle=none;rounded=0;orthogonalLoop=1;jettySize=auto;html=1;exitX=0.5;exitY=0;exitDx=0;exitDy=0;entryX=0.5;entryY=1;entryDx=0;entryDy=0;endArrow=none;endFill=0;" edge="1" parent="1" source="QXv2AWhjhRIxDeLdODB5-580" target="QXv2AWhjhRIxDeLdODB5-539">
          <mxGeometry relative="1" as="geometry" />
        </mxCell>
        <mxCell id="QXv2AWhjhRIxDeLdODB5-580" value="" style="rounded=1;whiteSpace=wrap;html=1;" parent="1" vertex="1">
          <mxGeometry x="120" y="663" width="40" height="20" as="geometry" />
        </mxCell>
        <mxCell id="QXv2AWhjhRIxDeLdODB5-581" style="edgeStyle=none;rounded=0;orthogonalLoop=1;jettySize=auto;html=1;exitX=0.5;exitY=0;exitDx=0;exitDy=0;endArrow=none;endFill=0;strokeWidth=1;strokeColor=#000000;" parent="1" source="QXv2AWhjhRIxDeLdODB5-584" edge="1">
          <mxGeometry relative="1" as="geometry">
            <mxPoint x="220" y="643" as="targetPoint" />
          </mxGeometry>
        </mxCell>
        <mxCell id="QXv2AWhjhRIxDeLdODB5-582" style="edgeStyle=none;rounded=0;orthogonalLoop=1;jettySize=auto;html=1;exitX=0.5;exitY=0;exitDx=0;exitDy=0;entryX=0.5;entryY=1;entryDx=0;entryDy=0;endArrow=none;endFill=0;strokeWidth=1;strokeColor=#000000;" parent="1" source="QXv2AWhjhRIxDeLdODB5-584" target="QXv2AWhjhRIxDeLdODB5-586" edge="1">
          <mxGeometry relative="1" as="geometry" />
        </mxCell>
        <mxCell id="QXv2AWhjhRIxDeLdODB5-583" style="edgeStyle=none;rounded=0;orthogonalLoop=1;jettySize=auto;html=1;exitX=0.5;exitY=0;exitDx=0;exitDy=0;entryX=0.5;entryY=1;entryDx=0;entryDy=0;endArrow=none;endFill=0;strokeWidth=1;strokeColor=#000000;" parent="1" source="QXv2AWhjhRIxDeLdODB5-584" target="QXv2AWhjhRIxDeLdODB5-588" edge="1">
          <mxGeometry relative="1" as="geometry" />
        </mxCell>
        <mxCell id="QXv2AWhjhRIxDeLdODB5-584" value="" style="rounded=1;whiteSpace=wrap;html=1;fillColor=#d5e8d4;strokeColor=#82b366;" parent="1" vertex="1">
          <mxGeometry x="200" y="663" width="40" height="20" as="geometry" />
        </mxCell>
        <mxCell id="QXv2AWhjhRIxDeLdODB5-585" style="edgeStyle=none;rounded=0;orthogonalLoop=1;jettySize=auto;html=1;exitX=0.5;exitY=0;exitDx=0;exitDy=0;entryX=0.5;entryY=1;entryDx=0;entryDy=0;" parent="1" source="QXv2AWhjhRIxDeLdODB5-586" target="QXv2AWhjhRIxDeLdODB5-563" edge="1">
          <mxGeometry relative="1" as="geometry" />
        </mxCell>
        <mxCell id="QXv2AWhjhRIxDeLdODB5-586" value="" style="rounded=1;whiteSpace=wrap;html=1;fillColor=#d5e8d4;strokeColor=#82b366;" parent="1" vertex="1">
          <mxGeometry x="280" y="623" width="40" height="20" as="geometry" />
        </mxCell>
        <mxCell id="QXv2AWhjhRIxDeLdODB5-587" style="edgeStyle=none;rounded=0;orthogonalLoop=1;jettySize=auto;html=1;exitX=0.5;exitY=0;exitDx=0;exitDy=0;entryX=0.5;entryY=1;entryDx=0;entryDy=0;" parent="1" source="QXv2AWhjhRIxDeLdODB5-588" target="QXv2AWhjhRIxDeLdODB5-566" edge="1">
          <mxGeometry relative="1" as="geometry" />
        </mxCell>
        <mxCell id="QXv2AWhjhRIxDeLdODB5-588" value="" style="rounded=1;whiteSpace=wrap;html=1;fillColor=#d5e8d4;strokeColor=#82b366;" parent="1" vertex="1">
          <mxGeometry x="360" y="623" width="40" height="20" as="geometry" />
        </mxCell>
        <mxCell id="QXv2AWhjhRIxDeLdODB5-589" style="rounded=0;orthogonalLoop=1;jettySize=auto;html=1;exitX=0.5;exitY=0;exitDx=0;exitDy=0;entryX=0.5;entryY=1;entryDx=0;entryDy=0;endArrow=none;endFill=0;strokeWidth=1;strokeColor=#000000;" parent="1" source="QXv2AWhjhRIxDeLdODB5-591" target="QXv2AWhjhRIxDeLdODB5-586" edge="1">
          <mxGeometry relative="1" as="geometry" />
        </mxCell>
        <mxCell id="QXv2AWhjhRIxDeLdODB5-590" style="rounded=0;orthogonalLoop=1;jettySize=auto;html=1;exitX=0.5;exitY=0;exitDx=0;exitDy=0;endArrow=none;endFill=0;strokeWidth=1;strokeColor=#000000;" parent="1" source="QXv2AWhjhRIxDeLdODB5-591" edge="1">
          <mxGeometry relative="1" as="geometry">
            <mxPoint x="380" y="643" as="targetPoint" />
          </mxGeometry>
        </mxCell>
        <mxCell id="QXv2AWhjhRIxDeLdODB5-620" style="edgeStyle=none;rounded=0;orthogonalLoop=1;jettySize=auto;html=1;exitX=0.5;exitY=0;exitDx=0;exitDy=0;entryX=0.5;entryY=1;entryDx=0;entryDy=0;endArrow=none;endFill=0;" parent="1" source="QXv2AWhjhRIxDeLdODB5-591" target="QXv2AWhjhRIxDeLdODB5-534" edge="1">
          <mxGeometry relative="1" as="geometry" />
        </mxCell>
        <mxCell id="QXv2AWhjhRIxDeLdODB5-591" value="" style="rounded=1;whiteSpace=wrap;html=1;fillColor=#d5e8d4;strokeColor=#82b366;" parent="1" vertex="1">
          <mxGeometry x="280" y="663" width="40" height="20" as="geometry" />
        </mxCell>
        <mxCell id="QXv2AWhjhRIxDeLdODB5-592" style="edgeStyle=none;rounded=0;orthogonalLoop=1;jettySize=auto;html=1;exitX=0.5;exitY=0;exitDx=0;exitDy=0;endArrow=none;endFill=0;strokeWidth=1;strokeColor=#000000;" parent="1" source="QXv2AWhjhRIxDeLdODB5-593" edge="1">
          <mxGeometry relative="1" as="geometry">
            <mxPoint x="380" y="643" as="targetPoint" />
          </mxGeometry>
        </mxCell>
        <mxCell id="QXv2AWhjhRIxDeLdODB5-619" style="edgeStyle=none;rounded=0;orthogonalLoop=1;jettySize=auto;html=1;exitX=0.5;exitY=0;exitDx=0;exitDy=0;entryX=0.5;entryY=1;entryDx=0;entryDy=0;endArrow=none;endFill=0;" parent="1" source="QXv2AWhjhRIxDeLdODB5-593" target="QXv2AWhjhRIxDeLdODB5-539" edge="1">
          <mxGeometry relative="1" as="geometry" />
        </mxCell>
        <mxCell id="QXv2AWhjhRIxDeLdODB5-593" value="" style="rounded=1;whiteSpace=wrap;html=1;fillColor=#d5e8d4;strokeColor=#82b366;" parent="1" vertex="1">
          <mxGeometry x="360" y="663" width="40" height="20" as="geometry" />
        </mxCell>
        <mxCell id="QXv2AWhjhRIxDeLdODB5-594" style="edgeStyle=none;rounded=0;orthogonalLoop=1;jettySize=auto;html=1;exitX=0.5;exitY=0;exitDx=0;exitDy=0;entryX=0.5;entryY=1;entryDx=0;entryDy=0;" parent="1" source="QXv2AWhjhRIxDeLdODB5-595" target="QXv2AWhjhRIxDeLdODB5-556" edge="1">
          <mxGeometry relative="1" as="geometry" />
        </mxCell>
        <mxCell id="QXv2AWhjhRIxDeLdODB5-595" value="" style="rounded=1;whiteSpace=wrap;html=1;" parent="1" vertex="1">
          <mxGeometry x="440" y="623" width="40" height="20" as="geometry" />
        </mxCell>
        <mxCell id="QXv2AWhjhRIxDeLdODB5-596" style="edgeStyle=none;rounded=0;orthogonalLoop=1;jettySize=auto;html=1;exitX=0.5;exitY=0;exitDx=0;exitDy=0;entryX=0.5;entryY=1;entryDx=0;entryDy=0;" parent="1" source="QXv2AWhjhRIxDeLdODB5-597" target="QXv2AWhjhRIxDeLdODB5-557" edge="1">
          <mxGeometry relative="1" as="geometry" />
        </mxCell>
        <mxCell id="QXv2AWhjhRIxDeLdODB5-597" value="" style="rounded=1;whiteSpace=wrap;html=1;" parent="1" vertex="1">
          <mxGeometry x="520" y="623" width="40" height="20" as="geometry" />
        </mxCell>
        <mxCell id="QXv2AWhjhRIxDeLdODB5-598" style="rounded=0;orthogonalLoop=1;jettySize=auto;html=1;exitX=0.5;exitY=0;exitDx=0;exitDy=0;entryX=0.5;entryY=1;entryDx=0;entryDy=0;endArrow=none;endFill=0;strokeWidth=1;strokeColor=#CCCCCC;" parent="1" source="QXv2AWhjhRIxDeLdODB5-603" target="QXv2AWhjhRIxDeLdODB5-595" edge="1">
          <mxGeometry relative="1" as="geometry" />
        </mxCell>
        <mxCell id="QXv2AWhjhRIxDeLdODB5-599" style="rounded=0;orthogonalLoop=1;jettySize=auto;html=1;exitX=0.5;exitY=0;exitDx=0;exitDy=0;endArrow=none;endFill=0;strokeWidth=1;strokeColor=#CCCCCC;" parent="1" source="QXv2AWhjhRIxDeLdODB5-603" edge="1">
          <mxGeometry relative="1" as="geometry">
            <mxPoint x="540" y="643" as="targetPoint" />
          </mxGeometry>
        </mxCell>
        <mxCell id="QXv2AWhjhRIxDeLdODB5-600" style="edgeStyle=none;rounded=0;orthogonalLoop=1;jettySize=auto;html=1;exitX=0.5;exitY=0;exitDx=0;exitDy=0;entryX=0.5;entryY=1;entryDx=0;entryDy=0;endArrow=none;endFill=0;strokeWidth=1;strokeColor=#CCCCCC;" parent="1" source="QXv2AWhjhRIxDeLdODB5-603" target="QXv2AWhjhRIxDeLdODB5-572" edge="1">
          <mxGeometry relative="1" as="geometry" />
        </mxCell>
        <mxCell id="QXv2AWhjhRIxDeLdODB5-601" style="edgeStyle=none;rounded=0;orthogonalLoop=1;jettySize=auto;html=1;exitX=0.5;exitY=0;exitDx=0;exitDy=0;entryX=0.5;entryY=1;entryDx=0;entryDy=0;endArrow=none;endFill=0;strokeWidth=1;strokeColor=#CCCCCC;" parent="1" source="QXv2AWhjhRIxDeLdODB5-603" target="QXv2AWhjhRIxDeLdODB5-586" edge="1">
          <mxGeometry relative="1" as="geometry" />
        </mxCell>
        <mxCell id="QXv2AWhjhRIxDeLdODB5-602" style="edgeStyle=none;rounded=0;orthogonalLoop=1;jettySize=auto;html=1;exitX=0.5;exitY=0;exitDx=0;exitDy=0;entryX=0.5;entryY=1;entryDx=0;entryDy=0;endArrow=none;endFill=0;strokeWidth=1;strokeColor=#CCCCCC;" parent="1" source="QXv2AWhjhRIxDeLdODB5-603" target="QXv2AWhjhRIxDeLdODB5-588" edge="1">
          <mxGeometry relative="1" as="geometry" />
        </mxCell>
        <mxCell id="QXv2AWhjhRIxDeLdODB5-609" style="edgeStyle=none;rounded=0;orthogonalLoop=1;jettySize=auto;html=1;exitX=0.5;exitY=0;exitDx=0;exitDy=0;entryX=0.5;entryY=1;entryDx=0;entryDy=0;endArrow=none;endFill=0;" parent="1" source="QXv2AWhjhRIxDeLdODB5-603" target="QXv2AWhjhRIxDeLdODB5-539" edge="1">
          <mxGeometry relative="1" as="geometry" />
        </mxCell>
        <mxCell id="QXv2AWhjhRIxDeLdODB5-603" value="" style="rounded=1;whiteSpace=wrap;html=1;" parent="1" vertex="1">
          <mxGeometry x="440" y="663" width="40" height="20" as="geometry" />
        </mxCell>
        <mxCell id="QXv2AWhjhRIxDeLdODB5-604" style="edgeStyle=none;rounded=0;orthogonalLoop=1;jettySize=auto;html=1;exitX=0.5;exitY=0;exitDx=0;exitDy=0;endArrow=none;endFill=0;strokeWidth=1;strokeColor=#CCCCCC;" parent="1" source="QXv2AWhjhRIxDeLdODB5-607" edge="1">
          <mxGeometry relative="1" as="geometry">
            <mxPoint x="540" y="643" as="targetPoint" />
          </mxGeometry>
        </mxCell>
        <mxCell id="QXv2AWhjhRIxDeLdODB5-605" style="edgeStyle=none;rounded=0;orthogonalLoop=1;jettySize=auto;html=1;exitX=0.5;exitY=0;exitDx=0;exitDy=0;entryX=0.5;entryY=1;entryDx=0;entryDy=0;endArrow=none;endFill=0;strokeWidth=1;strokeColor=#CCCCCC;" parent="1" source="QXv2AWhjhRIxDeLdODB5-607" target="QXv2AWhjhRIxDeLdODB5-595" edge="1">
          <mxGeometry relative="1" as="geometry" />
        </mxCell>
        <mxCell id="QXv2AWhjhRIxDeLdODB5-606" style="edgeStyle=none;rounded=0;orthogonalLoop=1;jettySize=auto;html=1;exitX=0.5;exitY=0;exitDx=0;exitDy=0;entryX=0.5;entryY=1;entryDx=0;entryDy=0;endArrow=none;endFill=0;strokeWidth=1;strokeColor=#CCCCCC;" parent="1" source="QXv2AWhjhRIxDeLdODB5-607" target="QXv2AWhjhRIxDeLdODB5-588" edge="1">
          <mxGeometry relative="1" as="geometry" />
        </mxCell>
        <mxCell id="QXv2AWhjhRIxDeLdODB5-608" style="edgeStyle=none;rounded=0;orthogonalLoop=1;jettySize=auto;html=1;exitX=0.5;exitY=0;exitDx=0;exitDy=0;entryX=0.5;entryY=1;entryDx=0;entryDy=0;endArrow=none;endFill=0;" parent="1" source="QXv2AWhjhRIxDeLdODB5-607" target="QXv2AWhjhRIxDeLdODB5-534" edge="1">
          <mxGeometry relative="1" as="geometry" />
        </mxCell>
        <mxCell id="QXv2AWhjhRIxDeLdODB5-611" style="edgeStyle=none;rounded=0;orthogonalLoop=1;jettySize=auto;html=1;exitX=0.5;exitY=0;exitDx=0;exitDy=0;entryX=0.5;entryY=1;entryDx=0;entryDy=0;endArrow=none;endFill=0;" parent="1" source="QXv2AWhjhRIxDeLdODB5-607" target="QXv2AWhjhRIxDeLdODB5-539" edge="1">
          <mxGeometry relative="1" as="geometry" />
        </mxCell>
        <mxCell id="QXv2AWhjhRIxDeLdODB5-607" value="" style="rounded=1;whiteSpace=wrap;html=1;" parent="1" vertex="1">
          <mxGeometry x="520" y="663" width="40" height="20" as="geometry" />
        </mxCell>
        <mxCell id="QXv2AWhjhRIxDeLdODB5-616" value="" style="endArrow=none;dashed=1;html=1;dashPattern=1 3;strokeWidth=3;rounded=0;endFill=0;" parent="1" edge="1">
          <mxGeometry width="50" height="50" relative="1" as="geometry">
            <mxPoint x="730" y="632.52" as="sourcePoint" />
            <mxPoint x="770" y="632.52" as="targetPoint" />
          </mxGeometry>
        </mxCell>
        <mxCell id="QXv2AWhjhRIxDeLdODB5-617" value="" style="endArrow=none;dashed=1;html=1;dashPattern=1 3;strokeWidth=3;rounded=0;endFill=0;" parent="1" edge="1">
          <mxGeometry width="50" height="50" relative="1" as="geometry">
            <mxPoint x="730" y="672.52" as="sourcePoint" />
            <mxPoint x="770" y="672.52" as="targetPoint" />
          </mxGeometry>
        </mxCell>
      </root>
    </mxGraphModel>
  </diagram>
</mxfile>
